<svg width="37" height="34" id="logo" viewBox="0 0 37 34" fill="none" xmlns="http://www.w3.org/2000/svg">
<path d="M24.488 4.50037L25.1055 21.2364C25.1055 21.2364 22.3311 21.3212 18.6768 22.4576V15.8354C21.1557 12.1819 23.4278 8.16055 24.488 4.50037Z" fill="white"/>
<path d="M30.5108 28.5751C31.6573 28.5751 32.5862 29.504 32.5862 30.6505C32.5862 31.7969 31.6573 32.7259 30.5108 32.7259C29.3643 32.7259 28.4354 31.7969 28.4354 30.6505C28.4354 29.504 29.3643 28.5751 30.5108 28.5751Z" fill="white"/>
<path d="M4.36069 6.16071C5.96539 6.16071 7.26625 4.85984 7.26625 3.25514C7.26625 1.65044 5.96539 0.349579 4.36069 0.349579C2.75599 0.349579 1.45512 1.65044 1.45512 3.25514C1.45512 4.85984 2.75599 6.16071 4.36069 6.16071Z" fill="white"/>
<path d="M35.9599 4.76523L31.8697 25.6704C31.8697 25.6704 22.9529 24.2068 14.9435 28.9886C15.0157 28.9321 16.984 27.3888 20.3371 24.0093L26.828 23.1791V16.9695C30.5025 12.8825 34.0772 8.42624 35.9599 4.76523Z" fill="#9BC9FF"/>
<path d="M17.0165 1.59482V22.8968C17.0165 22.8968 7.98269 23.1724 1.04005 29.4052C1.04005 29.4052 14.0578 11.8116 17.0165 1.59482Z" fill="#9BC9FF"/>
<path d="M34.8691 23.179C35.213 23.179 35.4917 22.9003 35.4917 22.5564C35.4917 22.2126 35.213 21.9338 34.8691 21.9338C34.5252 21.9338 34.2465 22.2126 34.2465 22.5564C34.2465 22.9003 34.5252 23.179 34.8691 23.179Z" fill="#263238"/>
<path d="M31.1334 4.5004C31.4772 4.5004 31.756 4.22164 31.756 3.87778C31.756 3.53391 31.4772 3.25516 31.1334 3.25516C30.7895 3.25516 30.5108 3.53391 30.5108 3.87778C30.5108 4.22164 30.7895 4.5004 31.1334 4.5004Z" fill="#263238"/>
<path d="M24.077 29.4052C24.4209 29.4052 24.6996 29.1264 24.6996 28.7826C24.6996 28.4387 24.4209 28.1599 24.077 28.1599C23.7332 28.1599 23.4544 28.4387 23.4544 28.7826C23.4544 29.1264 23.7332 29.4052 24.077 29.4052Z" fill="#263238"/>
<path d="M8.30394 29.6128C8.6478 29.6128 8.92656 29.334 8.92656 28.9901C8.92656 28.6463 8.6478 28.3675 8.30394 28.3675C7.96008 28.3675 7.68132 28.6463 7.68132 28.9901C7.68132 29.334 7.96008 29.6128 8.30394 29.6128Z" fill="#263238"/>
<path d="M3.73807 12.802C4.08193 12.802 4.36069 12.5233 4.36069 12.1794C4.36069 11.8356 4.08193 11.5568 3.73807 11.5568C3.3942 11.5568 3.11545 11.8356 3.11545 12.1794C3.11545 12.5233 3.3942 12.802 3.73807 12.802Z" fill="#263238"/>
<path d="M1.04004 29.8203C0.940007 29.8203 0.83989 29.7843 0.760775 29.7122C0.603211 29.5689 0.579717 29.3296 0.7064 29.1584C0.836154 28.983 13.714 11.5072 16.6179 1.47937C16.6753 1.2808 16.8705 1.15494 17.0749 1.18383C17.2796 1.21289 17.4317 1.38805 17.4317 1.59476V22.8967C17.4317 23.121 17.2534 23.3047 17.0292 23.3116C17.007 23.3123 14.7651 23.3911 11.7167 24.2206C8.91462 24.9833 4.83579 26.5553 1.3174 29.7141C1.23845 29.7849 1.13925 29.8203 1.04004 29.8203ZM16.6014 4.10044C15.0521 8.12423 12.2585 13.3067 8.26859 19.5547C6.27637 22.6745 4.38235 25.4271 3.08531 27.2673C6.09996 25.1855 9.22685 24.0358 11.5231 23.4131C13.9278 22.7608 15.8107 22.5631 16.6014 22.5049V4.10044Z" fill="#263238"/>
<path d="M18.6768 22.8727C18.5893 22.8727 18.5029 22.845 18.4307 22.7918C18.3245 22.7136 18.2617 22.5895 18.2617 22.4576V15.8354C18.2617 15.7523 18.2866 15.6711 18.3333 15.6023C21.2358 11.3244 23.1724 7.55032 24.0892 4.38483C24.1459 4.18908 24.3365 4.06315 24.5386 4.08838C24.741 4.11329 24.8952 4.2814 24.9027 4.48503L25.5203 21.2211C25.5244 21.3316 25.4842 21.4391 25.4088 21.5199C25.3332 21.6006 25.2286 21.648 25.1182 21.6514C25.0911 21.6522 22.3509 21.7497 18.8 22.8539C18.7597 22.8665 18.7181 22.8727 18.6768 22.8727ZM19.0919 15.9628V21.8992C21.7255 21.1332 23.8183 20.9091 24.6758 20.8456L24.1555 6.74731C23.0823 9.48111 21.3857 12.57 19.0919 15.9628Z" fill="#263238"/>
<path d="M14.9411 29.4052C14.7118 29.4052 14.526 29.2194 14.526 28.9901C14.526 28.8284 14.6185 28.6882 14.7535 28.6197C14.9131 28.5379 15.1138 28.5662 15.2437 28.7027C15.4017 28.8687 15.3958 29.1309 15.2298 29.2891C15.1526 29.3631 15.0482 29.4052 14.9411 29.4052Z" fill="#263238"/>
<path d="M14.9439 29.4037C14.8112 29.4037 14.6813 29.34 14.6012 29.2232C14.4773 29.0425 14.5152 28.7966 14.6878 28.6615C14.7697 28.5975 16.73 27.0556 20.0424 23.7168C20.1075 23.6512 20.1928 23.6091 20.2844 23.5974L26.413 22.8137V16.9694C26.413 16.867 26.451 16.7681 26.5194 16.6919C30.9228 11.7941 33.9748 7.71753 35.5907 4.57537C35.6853 4.39157 35.9007 4.30524 36.0959 4.37306C36.2913 4.44088 36.4069 4.64203 36.3672 4.84492L32.277 25.75C32.2339 25.9701 32.024 26.1162 31.8024 26.08C31.7901 26.078 30.5212 25.8744 28.5507 25.8744C25.0922 25.8744 19.9608 26.4765 15.1562 29.345C15.0899 29.3847 15.0165 29.4037 14.9439 29.4037ZM20.5312 24.4029C19.4346 25.5052 18.4855 26.4115 17.7046 27.1324C21.7259 25.4444 25.6934 25.0442 28.5508 25.0442C29.9544 25.0442 31.0017 25.1422 31.5376 25.2064L35.0721 7.14132C33.3117 9.94045 30.6884 13.2877 27.2432 17.1285V23.179C27.2432 23.388 27.088 23.5643 26.8808 23.5908L20.5312 24.4029Z" fill="#263238"/>
<path d="M4.3607 6.57583C2.5297 6.57583 1.04005 5.08619 1.04005 3.25519C1.04005 1.42418 2.5297 -0.0654602 4.3607 -0.0654602C6.19179 -0.0654602 7.68135 1.42418 7.68135 3.25519C7.68135 5.08619 6.1917 6.57583 4.3607 6.57583ZM4.3607 0.764701C2.98745 0.764701 1.87022 1.88193 1.87022 3.25519C1.87022 4.62844 2.98745 5.74567 4.3607 5.74567C5.73395 5.74567 6.85118 4.62844 6.85118 3.25519C6.85118 1.88193 5.73395 0.764701 4.3607 0.764701Z" fill="#263238"/>
<path d="M30.5108 33.1409C29.1375 33.1409 28.0203 32.0237 28.0203 30.6504C28.0203 29.2772 29.1375 28.1599 30.5108 28.1599C31.884 28.1599 33.0013 29.2772 33.0013 30.6504C33.0013 32.0237 31.884 33.1409 30.5108 33.1409ZM30.5108 28.9901C29.5954 28.9901 28.8505 29.7349 28.8505 30.6504C28.8505 31.5659 29.5954 32.3107 30.5108 32.3107C31.4263 32.3107 32.1711 31.5659 32.1711 30.6504C32.1711 29.7349 31.4263 28.9901 30.5108 28.9901Z" fill="#263238"/>
</svg>
