<svg width="47" height="45" id="popup-logo" viewBox="0 0 47 45" fill="none" xmlns="http://www.w3.org/2000/svg">
<path d="M31.1374 8.47057L31.925 29.8165C31.925 29.8165 28.3864 29.9246 23.7256 31.374V22.9278C26.8872 18.2679 29.7851 13.1389 31.1374 8.47057Z" fill="white"/>
<path d="M38.8189 39.1765C40.2813 39.1765 41.466 40.3613 41.466 41.8236C41.466 43.2858 40.2813 44.4706 38.8189 44.4706C37.3567 44.4706 36.1719 43.2858 36.1719 41.8236C36.1719 40.3613 37.3567 39.1765 38.8189 39.1765Z" fill="white"/>
<path d="M5.46602 10.5882C7.51272 10.5882 9.17191 8.92904 9.17191 6.88234C9.17191 4.83563 7.51272 3.17645 5.46602 3.17645C3.41931 3.17645 1.76013 4.83563 1.76013 6.88234C1.76013 8.92904 3.41931 10.5882 5.46602 10.5882Z" fill="white"/>
<path d="M45.769 8.8084L40.5521 35.4717C40.5521 35.4717 29.1793 33.605 18.9637 39.7039C19.0559 39.6318 21.5663 37.6635 25.8429 33.3531L34.1218 32.2943V24.3743C38.8083 19.1616 43.3676 13.4778 45.769 8.8084Z" fill="#263238"/>
<path d="M21.6079 4.7647V31.9341C21.6079 31.9341 10.0858 32.2857 1.23083 40.2353C1.23083 40.2353 17.8343 17.7957 21.6079 4.7647Z" fill="#263238"/>
<path d="M44.3779 32.2942C44.8164 32.2942 45.172 31.9386 45.172 31.5001C45.172 31.0615 44.8164 30.7059 44.3779 30.7059C43.9393 30.7059 43.5837 31.0615 43.5837 31.5001C43.5837 31.9386 43.9393 32.2942 44.3779 32.2942Z" fill="white"/>
<path d="M39.6131 8.4706C40.0517 8.4706 40.4072 8.11506 40.4072 7.67648C40.4072 7.2379 40.0517 6.88236 39.6131 6.88236C39.1745 6.88236 38.819 7.2379 38.819 7.67648C38.819 8.11506 39.1745 8.4706 39.6131 8.4706Z" fill="white"/>
<path d="M30.6131 40.2353C31.0517 40.2353 31.4072 39.8797 31.4072 39.4412C31.4072 39.0026 31.0517 38.647 30.6131 38.647C30.1745 38.647 29.819 39.0026 29.819 39.4412C29.819 39.8797 30.1745 40.2353 30.6131 40.2353Z" fill="white"/>
<path d="M27.4366 1.58823C27.8752 1.58823 28.2307 1.23269 28.2307 0.794111C28.2307 0.355531 27.8752 -7.62939e-06 27.4366 -7.62939e-06C26.998 -7.62939e-06 26.6425 0.355531 26.6425 0.794111C26.6425 1.23269 26.998 1.58823 27.4366 1.58823Z" fill="white"/>
<path d="M14.7308 2.11763C15.1693 2.11763 15.5249 1.76209 15.5249 1.32351C15.5249 0.884927 15.1693 0.529388 14.7308 0.529388C14.2922 0.529388 13.9366 0.884927 13.9366 1.32351C13.9366 1.76209 14.2922 2.11763 14.7308 2.11763Z" fill="white"/>
<path d="M10.4954 40.5C10.934 40.5 11.2895 40.1445 11.2895 39.7059C11.2895 39.2673 10.934 38.9118 10.4954 38.9118C10.0568 38.9118 9.70129 39.2673 9.70129 39.7059C9.70129 40.1445 10.0568 40.5 10.4954 40.5Z" fill="white"/>
<path d="M4.67205 19.0589C5.11063 19.0589 5.46617 18.7034 5.46617 18.2648C5.46617 17.8262 5.11063 17.4707 4.67205 17.4707C4.23347 17.4707 3.87793 17.8262 3.87793 18.2648C3.87793 18.7034 4.23347 19.0589 4.67205 19.0589Z" fill="white"/>
<path d="M1.23078 40.7648C1.10319 40.7648 0.975496 40.7188 0.87459 40.6269C0.673625 40.444 0.64366 40.1389 0.805237 39.9204C0.970731 39.6968 17.3956 17.4074 21.0994 4.61743C21.1727 4.36416 21.4216 4.20365 21.6823 4.24049C21.9434 4.27755 22.1374 4.50096 22.1374 4.76461V31.9341C22.1374 32.2201 21.9101 32.4545 21.6241 32.4633C21.5958 32.4641 18.7363 32.5646 14.8483 33.6227C11.2744 34.5954 6.07204 36.6004 1.58453 40.6292C1.48384 40.7195 1.35731 40.7648 1.23078 40.7648ZM21.0784 7.96046C19.1024 13.0926 15.5393 19.7025 10.4504 27.6715C7.90942 31.6506 5.49371 35.1615 3.83941 37.5084C7.68442 34.8533 11.6726 33.387 14.6013 32.5926C17.6684 31.7607 20.0699 31.5085 21.0784 31.4344V7.96046Z" fill="white"/>
<path d="M23.7255 31.9034C23.6139 31.9034 23.5036 31.8682 23.4115 31.8003C23.2761 31.7006 23.196 31.5423 23.196 31.374V22.9278C23.196 22.8218 23.2278 22.7182 23.2873 22.6305C26.9893 17.1742 29.4593 12.3606 30.6287 8.3232C30.701 8.07353 30.9441 7.91291 31.2018 7.94509C31.46 7.97686 31.6567 8.19127 31.6662 8.451L32.454 29.7969C32.4592 29.9378 32.4079 30.075 32.3117 30.178C32.2153 30.281 32.0819 30.3414 31.9411 30.3457C31.9065 30.3468 28.4116 30.4712 23.8826 31.8795C23.8311 31.8955 23.7781 31.9034 23.7255 31.9034ZM24.2549 23.0902V30.6619C27.6139 29.6848 30.2832 29.399 31.3768 29.318L30.7132 11.3364C29.3444 14.8232 27.1805 18.7629 24.2549 23.0902Z" fill="white"/>
<path d="M18.9608 40.2353C18.6684 40.2353 18.4314 39.9984 18.4314 39.7059C18.4314 39.4996 18.5493 39.3208 18.7215 39.2335C18.9251 39.1291 19.1811 39.1652 19.3467 39.3392C19.5483 39.551 19.5407 39.8855 19.3291 40.0872C19.2306 40.1815 19.0974 40.2353 18.9608 40.2353Z" fill="white"/>
<path d="M18.9645 40.2333C18.7952 40.2333 18.6296 40.1521 18.5274 40.0032C18.3693 39.7727 18.4177 39.459 18.6378 39.2868C18.7422 39.2051 21.2425 37.2385 25.4674 32.9801C25.5504 32.8963 25.6591 32.8427 25.776 32.8278L33.5927 31.8282V24.3742C33.5927 24.2435 33.6411 24.1174 33.7284 24.0202C39.3446 17.7733 43.2373 12.5739 45.2983 8.56622C45.4189 8.3318 45.6937 8.22168 45.9427 8.30819C46.1918 8.39469 46.3393 8.65125 46.2887 8.91002L41.0719 35.5734C41.0169 35.854 40.7492 36.0404 40.4666 35.9941C40.4508 35.9916 38.8324 35.732 36.3191 35.732C31.908 35.732 25.3633 36.4999 19.2352 40.1585C19.1506 40.2091 19.057 40.2333 18.9645 40.2333ZM26.0907 33.8551C24.6921 35.261 23.4815 36.417 22.4856 37.3364C27.6145 35.1835 32.6749 34.6731 36.3193 34.6731C38.1095 34.6731 39.4452 34.7981 40.1288 34.8799L44.6368 11.8389C42.3915 15.4091 39.0457 19.6784 34.6515 24.577V32.2942C34.6515 32.5607 34.4536 32.7856 34.1893 32.8193L26.0907 33.8551Z" fill="white"/>
<path d="M5.46613 11.1177C3.13079 11.1177 1.23083 9.21775 1.23083 6.88241C1.23083 4.54706 3.13079 2.64711 5.46613 2.64711C7.80158 2.64711 9.70143 4.54706 9.70143 6.88241C9.70143 9.21775 7.80148 11.1177 5.46613 11.1177ZM5.46613 3.70593C3.71463 3.70593 2.28966 5.1309 2.28966 6.88241C2.28966 8.63392 3.71463 10.0589 5.46613 10.0589C7.21764 10.0589 8.64261 8.63392 8.64261 6.88241C8.64261 5.1309 7.21764 3.70593 5.46613 3.70593Z" fill="white"/>
<path d="M38.8191 45C37.0675 45 35.6426 43.575 35.6426 41.8235C35.6426 40.072 37.0675 38.647 38.8191 38.647C40.5706 38.647 41.9955 40.072 41.9955 41.8235C41.9955 43.575 40.5706 45 38.8191 45ZM38.8191 39.7059C37.6515 39.7059 36.7014 40.6559 36.7014 41.8235C36.7014 42.9912 37.6515 43.9412 38.8191 43.9412C39.9867 43.9412 40.9367 42.9912 40.9367 41.8235C40.9367 40.6559 39.9867 39.7059 38.8191 39.7059Z" fill="white"/>
</svg>
