<svg width="456" height="437" viewBox="0 0 456 437" fill="none" xmlns="http://www.w3.org/2000/svg">
<g clip-path="url(#clip0_4_580)">
<path d="M310.51 32.33C288.69 44.81 273.3 65.8 254.65 82.65C231.453 103.526 203.22 118.001 172.73 124.65C147.73 130.06 121.61 130.14 97.52 138.65C50.52 155.14 18.33 204.08 17.52 253.84C16.71 303.6 45.02 351.84 86.63 379.12C100.801 388.416 116.315 395.481 132.63 400.07C163.23 408.68 195.68 408.3 227.3 405.01C281.92 399.32 339.18 368.3 373.61 324.57C388.957 305.025 401.928 283.726 412.25 261.12C429.302 223.949 438.987 183.826 440.77 142.97C442.22 107.97 440.77 69.17 413 43.66C385.23 18.15 343.06 13.7 310.51 32.33Z" fill="#0087C5"/>
<path opacity="0.7" d="M310.51 32.33C288.69 44.81 273.3 65.8 254.65 82.65C231.453 103.526 203.22 118.001 172.73 124.65C147.73 130.06 121.61 130.14 97.52 138.65C50.52 155.14 18.33 204.08 17.52 253.84C16.71 303.6 45.02 351.84 86.63 379.12C100.801 388.416 116.315 395.481 132.63 400.07C163.23 408.68 195.68 408.3 227.3 405.01C281.92 399.32 339.18 368.3 373.61 324.57C388.957 305.025 401.928 283.726 412.25 261.12C429.302 223.949 438.987 183.826 440.77 142.97C442.22 107.97 440.77 69.17 413 43.66C385.23 18.15 343.06 13.7 310.51 32.33Z" fill="white"/>
<path d="M253.1 433.05C352.141 433.05 432.43 411.425 432.43 384.75C432.43 358.075 352.141 336.45 253.1 336.45C154.059 336.45 73.77 358.075 73.77 384.75C73.77 411.425 154.059 433.05 253.1 433.05Z" fill="#0087C5"/>
<path opacity="0.5" d="M253.1 433.05C352.141 433.05 432.43 411.425 432.43 384.75C432.43 358.075 352.141 336.45 253.1 336.45C154.059 336.45 73.77 358.075 73.77 384.75C73.77 411.425 154.059 433.05 253.1 433.05Z" fill="white"/>
<path d="M274.96 36.8H64.13C59.187 36.8 55.18 40.807 55.18 45.75V163.94C55.18 168.883 59.187 172.89 64.13 172.89H274.96C279.903 172.89 283.91 168.883 283.91 163.94V45.75C283.91 40.807 279.903 36.8 274.96 36.8Z" fill="white"/>
<path d="M283.91 45.75V49.29H55.18V45.75C55.18 43.3717 56.1213 41.09 57.7983 39.4036C59.4754 37.7173 61.7517 36.7632 64.13 36.75H275C276.177 36.7539 277.341 36.99 278.426 37.4448C279.511 37.8996 280.496 38.5641 281.323 39.4003C282.151 40.2364 282.806 41.2277 283.25 42.3173C283.693 43.4069 283.918 44.5735 283.91 45.75Z" fill="#0087C5"/>
<path d="M274.96 36.8H64.13C59.187 36.8 55.18 40.807 55.18 45.75V163.94C55.18 168.883 59.187 172.89 64.13 172.89H274.96C279.903 172.89 283.91 168.883 283.91 163.94V45.75C283.91 40.807 279.903 36.8 274.96 36.8Z" stroke="#263238" stroke-linecap="round" stroke-linejoin="round"/>
<path d="M283.91 45.75V49.29H55.18V45.75C55.18 43.3717 56.1213 41.09 57.7983 39.4036C59.4754 37.7173 61.7517 36.7632 64.13 36.75H275C276.177 36.7539 277.341 36.99 278.426 37.4448C279.511 37.8996 280.496 38.5641 281.323 39.4003C282.151 40.2364 282.806 41.2277 283.25 42.3173C283.693 43.4069 283.918 44.5735 283.91 45.75Z" stroke="#263238" stroke-linecap="round" stroke-linejoin="round"/>
<path d="M80.87 43.04C80.872 43.4933 80.7393 43.9371 80.4889 44.315C80.2385 44.6929 79.8815 44.9879 79.4633 45.1628C79.045 45.3377 78.5843 45.3844 78.1394 45.2972C77.6945 45.21 77.2855 44.9927 76.9643 44.6728C76.643 44.3529 76.4239 43.9449 76.3347 43.5004C76.2456 43.056 76.2903 42.595 76.4634 42.176C76.6364 41.7569 76.9299 41.3987 77.3067 41.1466C77.6835 40.8946 78.1266 40.76 78.58 40.76C79.1856 40.76 79.7666 40.9999 80.1957 41.4272C80.6249 41.8545 80.8673 42.4344 80.87 43.04Z" fill="#263238"/>
<path d="M92.82 43.04C92.8219 43.4933 92.6893 43.9371 92.4389 44.315C92.1885 44.6929 91.8315 44.9879 91.4133 45.1628C90.995 45.3377 90.5342 45.3844 90.0894 45.2972C89.6445 45.21 89.2355 44.9927 88.9143 44.6728C88.593 44.3529 88.3739 43.9449 88.2847 43.5004C88.1956 43.056 88.2403 42.595 88.4133 42.176C88.5864 41.7569 88.8799 41.3987 89.2567 41.1466C89.6335 40.8946 90.0766 40.76 90.53 40.76C91.1356 40.76 91.7166 40.9999 92.1457 41.4272C92.5749 41.8545 92.8173 42.4344 92.82 43.04Z" fill="#263238"/>
<path d="M102.48 45.33C103.745 45.33 104.77 44.3047 104.77 43.04C104.77 41.7753 103.745 40.75 102.48 40.75C101.215 40.75 100.19 41.7753 100.19 43.04C100.19 44.3047 101.215 45.33 102.48 45.33Z" fill="#263238"/>
<path d="M137.1 59.2H72.43C70.3921 59.2 68.74 60.8521 68.74 62.89V94C68.74 96.0379 70.3921 97.69 72.43 97.69H137.1C139.138 97.69 140.79 96.0379 140.79 94V62.89C140.79 60.8521 139.138 59.2 137.1 59.2Z" stroke="#263238" stroke-linecap="round" stroke-linejoin="round"/>
<path d="M72.98 92.85H135.45" stroke="#263238" stroke-linecap="round" stroke-linejoin="round"/>
<path d="M84.87 85.5H77.62V92.75H84.87V85.5Z" fill="#0087C5" stroke="#263238" stroke-miterlimit="10"/>
<path d="M95.48 75.97H88.23V92.85H95.48V75.97Z" fill="#0087C5" stroke="#263238" stroke-miterlimit="10"/>
<path d="M107.43 78.87H100.18V93.02H107.43V78.87Z" fill="#0087C5" stroke="#263238" stroke-miterlimit="10"/>
<path d="M119.99 64.78H112.74V92.53H119.99V64.78Z" fill="#0087C5" stroke="#263238" stroke-miterlimit="10"/>
<path d="M132.54 65H125.29V92.75H132.54V65Z" fill="#0087C5" stroke="#263238" stroke-miterlimit="10"/>
<path d="M230.12 99.68C241.315 99.68 250.39 90.6048 250.39 79.41C250.39 68.2152 241.315 59.14 230.12 59.14C218.925 59.14 209.85 68.2152 209.85 79.41C209.85 90.6048 218.925 99.68 230.12 99.68Z" fill="#0087C5" stroke="#263238" stroke-miterlimit="10"/>
<path d="M231.78 92.05V94.13H228.38V92.05C226.984 91.7122 225.749 90.8985 224.887 89.7487C224.026 88.599 223.592 87.185 223.66 85.75V84.81L227.51 84.39V85.39C227.51 87.32 228.51 88.49 230.08 88.49C230.421 88.5183 230.764 88.4725 231.085 88.3558C231.406 88.239 231.699 88.0542 231.942 87.8138C232.185 87.5735 232.373 87.2833 232.494 86.9633C232.614 86.6433 232.664 86.3011 232.64 85.96C232.64 84.11 230.91 82.52 228.87 80.83C226.45 78.83 224.04 76.45 224.04 73.09C224.04 69.73 225.62 67.46 228.38 66.78V64.69H231.78V66.76C234.57 67.41 236.19 69.76 236.19 73.11V73.79L232.34 74.2V73.5C232.34 71.5 231.55 70.4 230.15 70.4C228.75 70.4 227.96 71.27 227.96 72.93C227.96 74.78 229.74 76.33 231.74 78.06C234.12 80.06 236.57 82.44 236.57 85.8C236.629 87.2375 236.182 88.6502 235.306 89.7921C234.431 90.9341 233.183 91.733 231.78 92.05Z" fill="#263238"/>
<path d="M67.06 117.35H72.98" stroke="#263238" stroke-linecap="round" stroke-linejoin="round"/>
<path d="M67.06 128.79H72.98" stroke="#263238" stroke-linecap="round" stroke-linejoin="round"/>
<path d="M67.06 140.24H72.98" stroke="#263238" stroke-linecap="round" stroke-linejoin="round"/>
<path d="M67.06 151.68H72.98" stroke="#263238" stroke-linecap="round" stroke-linejoin="round"/>
<path d="M86.03 160.32V155.72" stroke="#263238" stroke-linecap="round" stroke-linejoin="round"/>
<path d="M95.41 160.32V155.72" stroke="#263238" stroke-linecap="round" stroke-linejoin="round"/>
<path d="M104.79 160.32V155.72" stroke="#263238" stroke-linecap="round" stroke-linejoin="round"/>
<path d="M114.18 160.32V155.72" stroke="#263238" stroke-linecap="round" stroke-linejoin="round"/>
<path d="M123.56 160.32V155.72" stroke="#263238" stroke-linecap="round" stroke-linejoin="round"/>
<path d="M132.94 160.32V155.72" stroke="#263238" stroke-linecap="round" stroke-linejoin="round"/>
<path d="M142.32 160.32V155.72" stroke="#263238" stroke-linecap="round" stroke-linejoin="round"/>
<path d="M151.71 160.32V155.72" stroke="#263238" stroke-linecap="round" stroke-linejoin="round"/>
<path d="M161.09 160.32V155.72" stroke="#263238" stroke-linecap="round" stroke-linejoin="round"/>
<path d="M170.47 160.32V155.72" stroke="#263238" stroke-linecap="round" stroke-linejoin="round"/>
<path d="M179.85 160.32V155.72" stroke="#263238" stroke-linecap="round" stroke-linejoin="round"/>
<path d="M189.24 160.32V155.72" stroke="#263238" stroke-linecap="round" stroke-linejoin="round"/>
<path d="M198.62 160.32V155.72" stroke="#263238" stroke-linecap="round" stroke-linejoin="round"/>
<path d="M208 160.32V155.72" stroke="#263238" stroke-linecap="round" stroke-linejoin="round"/>
<path d="M217.38 160.32V155.72" stroke="#263238" stroke-linecap="round" stroke-linejoin="round"/>
<path d="M226.41 160.32V155.72" stroke="#263238" stroke-linecap="round" stroke-linejoin="round"/>
<path d="M235.44 160.32V155.72" stroke="#263238" stroke-linecap="round" stroke-linejoin="round"/>
<path d="M244.46 160.32V155.72" stroke="#263238" stroke-linecap="round" stroke-linejoin="round"/>
<path d="M268.34 110.35V154.81C268.34 157.86 265.24 160.32 261.42 160.32H74C72.8588 160.36 71.7237 160.137 70.683 159.667C69.6423 159.197 68.7241 158.493 68 157.61C67.3744 156.808 67.0237 155.827 67 154.81V110.35C67 107.35 70.1 104.84 73.92 104.84H261.42C265.24 104.84 268.34 107.3 268.34 110.35Z" stroke="#0087C5" stroke-linecap="round" stroke-linejoin="round"/>
<path d="M211.3 24.24L151.47 104.84L128.59 135.66L103.59 119.74L73 160.32H72.56C71.6009 160.321 70.6581 160.071 69.8251 159.596C68.992 159.121 68.2974 158.436 67.81 157.61L102.18 112L127.18 127.89L144.29 104.89L206.68 20.89L211.3 24.24Z" fill="#263238"/>
<path d="M196.12 25.26L218.11 11.93L212.03 34.99L208.15 24.32L196.12 25.26Z" fill="#263238"/>
<path d="M404.23 279.02H52.54L13.12 314.07" stroke="#263238" stroke-linecap="round" stroke-linejoin="round"/>
<path d="M52.76 254.48V186.33" stroke="#263238" stroke-linecap="round" stroke-linejoin="round"/>
<path d="M52.76 275.06V261.88" stroke="#263238" stroke-linecap="round" stroke-linejoin="round"/>
<path d="M383.06 113.22C383.06 113.22 383.06 109.1 377.29 103.34C371.52 97.58 367.82 94.28 367.82 94.28C367.82 94.28 364.93 103.75 370.29 109.52C374.227 113.585 378.499 117.311 383.06 120.66V113.22Z" fill="#0087C5"/>
<path d="M374.69 138.95C374.69 138.95 374.69 134.83 368.92 129.06C363.15 123.29 359.45 120 359.45 120C359.45 120 356.57 129.47 361.92 135.24C365.862 139.302 370.133 143.032 374.69 146.39V138.95Z" fill="#0087C5"/>
<path d="M382.69 120.24C382.69 120.24 383.13 116.14 389.47 111.01C395.81 105.88 399.85 103.01 399.85 103.01C399.85 103.01 401.71 112.76 395.78 117.9C391.435 121.517 386.796 124.765 381.91 127.61L382.69 120.24Z" fill="#0087C5"/>
<path d="M372.58 150.62C372.58 150.62 373.45 146.62 380.29 142.16C387.13 137.7 391.44 135.28 391.44 135.28C391.44 135.28 392.27 145.15 385.86 149.67C381.162 152.81 376.208 155.55 371.05 157.86L372.58 150.62Z" fill="#0087C5"/>
<path d="M374.49 183.73C374.49 183.73 374.49 179.61 380.25 173.85C386.01 168.09 389.72 164.79 389.72 164.79C389.72 164.79 392.61 174.27 387.25 180.03C383.319 184.1 379.05 187.83 374.49 191.18V183.73Z" fill="#0087C5"/>
<path d="M374.39 191.82C374.39 191.82 374.97 187.74 370.08 181.22C365.19 174.7 362 170.9 362 170.9C362 170.9 357.82 179.9 362.29 186.34C365.613 190.914 369.312 195.202 373.35 199.16L374.39 191.82Z" fill="#0087C5"/>
<path d="M368.7 215.77C368.7 215.77 368.7 211.66 374.47 205.89C380.24 200.12 383.94 196.89 383.94 196.89C383.94 196.89 386.83 206.36 381.47 212.12C377.533 216.188 373.262 219.918 368.7 223.27V215.77Z" fill="#0087C5"/>
<path d="M372.55 237.5C372.55 237.5 371.55 233.5 375.64 226.5C379.73 219.5 382.51 215.35 382.51 215.35C382.51 215.35 387.69 223.79 383.98 230.72C381.197 235.645 378.006 240.328 374.44 244.72L372.55 237.5Z" fill="#0087C5"/>
<path d="M383.58 112.2C383.289 116.486 382.761 120.752 382 124.98C379.72 136.76 374 144.36 371.74 154.98C369.48 165.6 376.01 179.33 374.26 192.98C372.51 206.63 367.18 214.24 368.68 223.36C370.18 232.48 378.18 257.16 378.18 257.16" stroke="#263238" stroke-width="1.17749" stroke-linecap="round" stroke-linejoin="round"/>
<path d="M382.64 122.98L388.85 118.2" stroke="#263238" stroke-width="1.17749" stroke-linecap="round" stroke-linejoin="round"/>
<path d="M382.92 117.49L380.33 112.86" stroke="#263238" stroke-width="1.17749" stroke-linecap="round" stroke-linejoin="round"/>
<path d="M372.09 154.5C372.09 154.5 377.29 150.59 382.64 146.69" stroke="#263238" stroke-width="1.17749" stroke-linecap="round" stroke-linejoin="round"/>
<path d="M374.69 146.34C374.69 146.34 370.35 137.84 365.44 132.2" stroke="#263238" stroke-width="1.17749" stroke-linecap="round" stroke-linejoin="round"/>
<path d="M374.69 189.59C377.669 184.118 381.425 179.106 385.84 174.71" stroke="#263238" stroke-width="1.17749" stroke-linecap="round" stroke-linejoin="round"/>
<path d="M373.68 195.37C372.085 191.649 370.185 188.067 368 184.66C365 180.18 364.52 179.6 364.52 179.6" stroke="#263238" stroke-width="1.17749" stroke-linecap="round" stroke-linejoin="round"/>
<path d="M368.7 223.35C370.021 220.076 371.588 216.906 373.39 213.87C375.189 211.043 377.216 208.367 379.45 205.87" stroke="#263238" stroke-width="1.17749" stroke-linecap="round" stroke-linejoin="round"/>
<path d="M374.43 244.67C374.128 241.545 374.667 238.397 375.99 235.55C378.16 231.36 380.61 225.86 381.63 223.7" stroke="#263238" stroke-width="1.17749" stroke-linecap="round" stroke-linejoin="round"/>
<path d="M345.3 168.24C345.3 168.24 344.85 165.67 347.84 161.42C350.83 157.17 352.84 154.7 352.84 154.7C352.84 154.7 355.67 160.32 352.94 164.52C350.912 167.492 348.637 170.289 346.14 172.88L345.3 168.24Z" fill="#0087C5"/>
<path d="M353.34 183.5C353.34 183.5 352.89 180.91 355.88 176.67C358.87 172.43 360.88 169.96 360.88 169.96C360.88 169.96 363.71 175.59 360.98 179.78C358.954 182.754 356.679 185.551 354.18 188.14L353.34 183.5Z" fill="#0087C5"/>
<path d="M346.29 172.6C346.29 172.6 345.59 170.08 341.04 167.6C336.49 165.12 333.66 163.7 333.66 163.7C333.66 163.7 333.55 169.97 337.84 172.6C340.956 174.397 344.217 175.929 347.59 177.18L346.29 172.6Z" fill="#0087C5"/>
<path d="M355.93 190.55C355.93 190.55 354.93 188.12 350.17 186.09C345.41 184.06 342.42 182.99 342.42 182.99C342.42 182.99 342.97 189.26 347.5 191.4C350.789 192.858 354.194 194.039 357.68 194.93L355.93 190.55Z" fill="#0087C5"/>
<path d="M358.33 211.5C358.33 211.5 357.88 208.92 353.64 205.93C349.4 202.94 346.71 201.27 346.71 201.27C346.71 201.27 345.93 207.54 349.92 210.56C352.828 212.672 355.909 214.536 359.13 216.13L358.33 211.5Z" fill="#0087C5"/>
<path d="M359.26 216.59C359.26 216.59 358.45 214.1 360.81 209.48C363.17 204.86 364.81 202.13 364.81 202.13C364.81 202.13 368.41 207.29 366.31 211.84C364.709 215.069 362.842 218.16 360.73 221.08L359.26 216.59Z" fill="#0087C5"/>
<path d="M366.5 237.42C366.5 237.42 366.8 234.82 370.86 231.59C374.92 228.36 377.51 226.59 377.51 226.59C377.51 226.59 378.65 232.79 374.84 236.05C372.057 238.326 369.091 240.366 365.97 242.15L366.5 237.42Z" fill="#0087C5"/>
<path d="M365.43 231C365.43 231 364.98 228.41 360.74 225.42C356.5 222.43 353.82 220.77 353.82 220.77C353.82 220.77 353.04 227.04 357.02 230.06C359.932 232.171 363.016 234.034 366.24 235.63L365.43 231Z" fill="#0087C5"/>
<path d="M365.37 245.04C365.37 245.04 365.6 242.42 362.25 238.46C358.9 234.5 356.73 232.19 356.73 232.19C356.73 232.19 354.39 238.04 357.48 241.99C359.762 244.775 362.271 247.368 364.98 249.74L365.37 245.04Z" fill="#0087C5"/>
<path d="M344.85 167.64C345.501 170.299 346.299 172.92 347.24 175.49C349.94 182.62 354.34 186.77 356.92 193.19C359.5 199.61 356.92 208.92 359.47 217.29C362.02 225.66 366.22 229.83 366.25 235.74C366.28 241.65 364 257.98 364 257.98" stroke="#263238" stroke-width="1.17749" stroke-linecap="round" stroke-linejoin="round"/>
<path d="M346.62 174.31L342.21 172" stroke="#263238" stroke-width="1.17749" stroke-linecap="round" stroke-linejoin="round"/>
<path d="M345.84 170.9L346.97 167.72" stroke="#263238" stroke-width="1.17749" stroke-linecap="round" stroke-linejoin="round"/>
<path d="M356.66 192.92C356.66 192.92 352.97 191.04 349.2 189.17" stroke="#263238" stroke-width="1.17749" stroke-linecap="round" stroke-linejoin="round"/>
<path d="M354.14 188.14C355.225 184.717 356.655 181.413 358.41 178.28" stroke="#263238" stroke-width="1.17749" stroke-linecap="round" stroke-linejoin="round"/>
<path d="M358.84 215.22C356.379 212.113 353.483 209.378 350.24 207.1" stroke="#263238" stroke-width="1.17749" stroke-linecap="round" stroke-linejoin="round"/>
<path d="M360.1 218.74C360.684 216.241 361.477 213.796 362.47 211.43C363.86 208.28 364.1 207.87 364.1 207.87" stroke="#263238" stroke-width="1.17749" stroke-linecap="round" stroke-linejoin="round"/>
<path d="M366.06 240.2C367.491 238.423 369.077 236.776 370.8 235.28C371.897 234.467 372.927 233.568 373.88 232.59" stroke="#263238" stroke-width="1.17749" stroke-linecap="round" stroke-linejoin="round"/>
<path d="M366.25 235.74C365.055 233.832 363.718 232.017 362.25 230.31C360.814 228.742 359.252 227.294 357.58 225.98" stroke="#263238" stroke-width="1.17749" stroke-linecap="round" stroke-linejoin="round"/>
<path d="M365 249.74C364.841 247.738 364.151 245.816 363 244.17C361.18 241.77 359 238.59 358.18 237.34" stroke="#263238" stroke-width="1.17749" stroke-linecap="round" stroke-linejoin="round"/>
<path d="M384.18 286.14H357.92C357.398 286.14 356.897 285.936 356.523 285.572C356.15 285.208 355.933 284.712 355.92 284.19L352.15 255.13H389.87L386.1 284.19C386.088 284.698 385.882 285.183 385.526 285.545C385.169 285.907 384.688 286.12 384.18 286.14Z" fill="#263238"/>
<path d="M389.57 260.04H352.19C351.412 260.043 350.665 259.737 350.112 259.19C349.559 258.642 349.245 257.898 349.24 257.12C349.253 256.343 349.566 255.602 350.115 255.052C350.663 254.501 351.403 254.185 352.18 254.17H389.57C389.957 254.169 390.34 254.244 390.698 254.391C391.056 254.538 391.381 254.754 391.655 255.028C391.929 255.301 392.147 255.625 392.295 255.983C392.444 256.34 392.52 256.723 392.52 257.11C392.519 257.496 392.441 257.878 392.292 258.234C392.143 258.591 391.926 258.914 391.652 259.186C391.378 259.458 391.053 259.673 390.696 259.82C390.339 259.967 389.956 260.041 389.57 260.04Z" fill="#263238"/>
<path d="M305.3 143.81C305.298 152.017 302.517 159.981 297.408 166.405C292.3 172.828 285.166 177.331 277.17 179.18H277.06C276.11 179.39 275.16 179.58 274.18 179.72C272.461 179.965 270.726 180.088 268.99 180.09C259.499 180.056 250.398 176.307 243.637 169.646C236.875 162.984 232.991 153.94 232.816 144.45C232.641 134.961 236.189 125.779 242.699 118.873C249.21 111.967 258.166 107.884 267.65 107.5C267.98 107.5 268.33 107.5 268.65 107.5C268.756 107.49 268.864 107.49 268.97 107.5C269.093 107.49 269.217 107.49 269.34 107.5C274.239 107.532 279.079 108.57 283.56 110.55C290.024 113.382 295.522 118.035 299.383 123.942C303.244 129.849 305.3 136.753 305.3 143.81Z" fill="#0087C5"/>
<path opacity="0.4" d="M283.58 110.56C241.65 108.38 241.45 154.93 241.45 154.93C241.45 154.93 235.05 139.74 245.5 122.93C251.34 113.52 261.5 109.37 269.36 107.53C274.257 107.555 279.098 108.587 283.58 110.56Z" fill="white"/>
<path d="M305.3 143.81C305.3 152.037 302.505 160.02 297.375 166.452C292.244 172.883 285.081 177.381 277.06 179.21C274.413 179.819 271.706 180.125 268.99 180.12C259.36 180.298 250.054 176.643 243.119 169.959C236.184 163.275 232.188 154.11 232.01 144.48C231.832 134.85 235.487 125.544 242.171 118.609C248.855 111.674 258.02 107.678 267.65 107.5C268.09 107.5 268.54 107.5 268.99 107.5C278.619 107.503 287.853 111.329 294.662 118.138C301.471 124.947 305.297 134.181 305.3 143.81Z" stroke="#263238" stroke-linecap="round" stroke-linejoin="round"/>
<path d="M305.3 143.81C305.3 152.037 302.505 160.02 297.375 166.452C292.244 172.883 285.081 177.381 277.06 179.21C276.62 179.21 276.17 179.21 275.72 179.21C266.807 179.186 258.214 175.887 251.577 169.938C244.939 163.99 240.72 155.809 239.724 146.952C238.727 138.095 241.022 129.181 246.171 121.906C251.321 114.631 258.965 109.504 267.65 107.5C268.09 107.5 268.54 107.5 268.99 107.5C278.619 107.503 287.853 111.329 294.662 118.138C301.471 124.947 305.297 134.181 305.3 143.81Z" stroke="#263238" stroke-linecap="round" stroke-linejoin="round"/>
<path d="M281.5 166.5L282.44 170.34L276.16 171.87L275.22 168.04C269.6 168.04 265.09 164.39 263.65 158.53L263.22 156.79L270.15 154.28L270.59 156.09C271.46 159.65 273.81 161.36 276.74 160.64C277.383 160.54 277.997 160.301 278.539 159.941C279.081 159.581 279.538 159.107 279.88 158.553C280.221 157.999 280.438 157.377 280.516 156.731C280.593 156.085 280.53 155.429 280.33 154.81C279.49 151.39 275.57 149.25 271.03 147.04C265.66 144.44 260.12 141.14 258.6 134.93C257.12 128.87 258.98 123.82 263.77 121.32L262.83 117.48L269.1 115.95L270.04 119.78C275.49 119.7 279.55 123.29 281.04 129.49L281.35 130.75L274.43 133.26L274.08 131.87C273.16 128.1 271.22 126.51 268.64 127.14C266.06 127.77 264.99 129.74 265.74 132.8C266.58 136.22 270.55 138.28 275.04 140.58C280.35 143.27 285.95 146.48 287.47 152.68C289 158.65 286.56 163.97 281.5 166.5Z" stroke="#263238" stroke-miterlimit="10"/>
<path opacity="0.3" d="M281.5 166.5L282.44 170.34L276.16 171.87L275.22 168.04C269.6 168.04 265.09 164.39 263.65 158.53L263.22 156.79L270.15 154.28L270.59 156.09C271.46 159.65 273.81 161.36 276.74 160.64C277.383 160.54 277.997 160.301 278.539 159.941C279.081 159.581 279.538 159.107 279.88 158.553C280.221 157.999 280.438 157.377 280.516 156.731C280.593 156.085 280.53 155.429 280.33 154.81C279.49 151.39 275.57 149.25 271.03 147.04C265.66 144.44 260.12 141.14 258.6 134.93C257.12 128.87 258.98 123.82 263.77 121.32L262.83 117.48L269.1 115.95L270.04 119.78C275.49 119.7 279.55 123.29 281.04 129.49L281.35 130.75L274.43 133.26L274.08 131.87C273.16 128.1 271.22 126.51 268.64 127.14C266.06 127.77 264.99 129.74 265.74 132.8C266.58 136.22 270.55 138.28 275.04 140.58C280.35 143.27 285.95 146.48 287.47 152.68C289 158.65 286.56 163.97 281.5 166.5Z" fill="black"/>
<path d="M250.43 175.03L258.1 174.68" stroke="#263238" stroke-linecap="round" stroke-linejoin="round"/>
<path d="M246.74 172.48L253.43 171.91" stroke="#263238" stroke-linecap="round" stroke-linejoin="round"/>
<path d="M243.74 169.79L250.43 169.22" stroke="#263238" stroke-linecap="round" stroke-linejoin="round"/>
<path d="M242.82 118.63H248.55" stroke="#263238" stroke-linecap="round" stroke-linejoin="round"/>
<path d="M245.65 115.99L251.36 115.73" stroke="#263238" stroke-linecap="round" stroke-linejoin="round"/>
<path d="M249.23 113.34L255.25 112.77" stroke="#263238" stroke-linecap="round" stroke-linejoin="round"/>
<path opacity="0.3" d="M277.17 179.18H277.06C274.413 179.789 271.706 180.095 268.99 180.09C259.499 180.056 250.398 176.307 243.637 169.646C236.875 162.984 232.991 153.94 232.816 144.45C232.641 134.961 236.189 125.779 242.699 118.873C249.21 111.967 258.166 107.884 267.65 107.5C267.98 107.5 268.33 107.5 268.65 107.5C259.8 110.29 244.95 117.42 240.98 132.29C235.37 153.42 248 177.41 277.17 179.18Z" fill="black"/>
<path opacity="0.1" d="M305.3 143.81C305.298 152.017 302.517 159.981 297.408 166.405C292.3 172.828 285.166 177.331 277.17 179.18H277.06C276.11 179.39 275.16 179.58 274.18 179.72L283.58 110.53C290.043 113.366 295.54 118.024 299.397 123.935C303.255 129.845 305.306 136.752 305.3 143.81Z" fill="black"/>
<path d="M325.9 86.65C323.025 90.7111 318.858 93.6777 314.079 95.0653C309.301 96.4529 304.193 96.1796 299.59 94.29L299.46 94.23C298.777 93.9298 298.11 93.5961 297.46 93.23C296.726 92.8354 296.018 92.3946 295.34 91.91C290.91 88.527 287.93 83.5887 287 78.0928C286.071 72.5969 287.263 66.9533 290.335 62.3021C293.406 57.6509 298.129 54.3391 303.548 53.0356C308.967 51.7321 314.679 52.5343 319.53 55.28L320.02 55.59C320.25 55.72 320.47 55.88 320.7 56.04C320.93 56.2 321.37 56.53 321.7 56.79C326.071 60.2962 328.94 65.3382 329.72 70.8873C330.501 76.4363 329.134 82.074 325.9 86.65Z" fill="#0087C5"/>
<path opacity="0.4" d="M292.76 86.95C292.76 86.95 289.17 76.38 293.94 68.6C299.94 58.85 309.13 54.4 321.64 56.8C321.64 56.8 314.86 52.22 303.51 55.47C292.16 58.72 286.07 74.34 292.76 86.95Z" fill="white"/>
<path d="M325.9 86.66C323.022 90.7177 318.854 93.6802 314.076 95.0641C309.297 96.448 304.191 96.1716 299.59 94.28C298.072 93.6595 296.629 92.8678 295.29 91.92C290.833 88.5006 287.852 83.5055 286.96 77.9588C286.067 72.4122 287.331 66.7343 290.491 62.0894C293.651 57.4445 298.468 54.1845 303.955 52.9779C309.442 51.7712 315.183 52.7094 320 55.6C320.22 55.73 320.45 55.88 320.67 56.04C325.416 59.4128 328.632 64.5297 329.612 70.2693C330.593 76.0088 329.258 81.903 325.9 86.66Z" stroke="#263238" stroke-linecap="round" stroke-linejoin="round"/>
<path d="M325.9 86.66C323.022 90.7177 318.854 93.6802 314.076 95.0641C309.297 96.448 304.191 96.1716 299.59 94.28L298.92 93.84C294.576 90.6909 291.532 86.0626 290.361 80.826C289.191 75.5894 289.975 70.1057 292.565 65.4066C295.156 60.7075 299.374 57.1172 304.427 55.3111C309.479 53.505 315.018 53.6077 320 55.6C320.22 55.73 320.45 55.88 320.67 56.04C325.416 59.4128 328.632 64.5297 329.612 70.2692C330.593 76.0088 329.258 81.903 325.9 86.66Z" stroke="#263238" stroke-linecap="round" stroke-linejoin="round"/>
<path d="M306.21 89.58L305.34 91.8L301.7 90.37L302.57 88.14C301.219 87.1891 300.241 85.7982 299.804 84.2056C299.366 82.613 299.495 80.9177 300.17 79.41L300.57 78.41L304.87 79.58L304.46 80.64C303.65 82.7 304.2 84.36 305.9 85.03C306.253 85.2056 306.64 85.3024 307.034 85.3138C307.428 85.3251 307.819 85.2507 308.182 85.0956C308.544 84.9406 308.868 84.7087 309.132 84.4159C309.396 84.1231 309.593 83.7765 309.71 83.4C310.49 81.4 309.3 78.99 307.83 76.32C306.09 73.16 304.51 69.6 305.92 66C307.33 62.4 309.99 60.64 313.22 61.08L314.1 58.86L317.73 60.29L316.86 62.5C319.58 64.36 320.33 67.5 318.92 71.15L318.63 71.87L314.33 70.7L314.65 69.89C315.51 67.71 315.11 66.24 313.65 65.65C312.19 65.06 310.94 65.65 310.24 67.44C309.46 69.44 310.71 71.82 312.12 74.52C313.81 77.71 315.45 81.25 314.04 84.84C313.505 86.4279 312.426 87.7751 310.992 88.6428C309.559 89.5104 307.865 89.8425 306.21 89.58Z" stroke="#263238" stroke-miterlimit="10"/>
<path opacity="0.3" d="M306.21 89.58L305.34 91.8L301.7 90.37L302.57 88.14C301.219 87.1891 300.241 85.7982 299.804 84.2056C299.366 82.613 299.495 80.9177 300.17 79.41L300.57 78.41L304.87 79.58L304.46 80.64C303.65 82.7 304.2 84.36 305.9 85.03C306.253 85.2056 306.64 85.3024 307.034 85.3138C307.428 85.3251 307.819 85.2507 308.182 85.0956C308.544 84.9406 308.868 84.7087 309.132 84.4159C309.396 84.1231 309.593 83.7765 309.71 83.4C310.49 81.4 309.3 78.99 307.83 76.32C306.09 73.16 304.51 69.6 305.92 66C307.33 62.4 309.99 60.64 313.22 61.08L314.1 58.86L317.73 60.29L316.86 62.5C319.58 64.36 320.33 67.5 318.92 71.15L318.63 71.87L314.33 70.7L314.65 69.89C315.51 67.71 315.11 66.24 313.65 65.65C312.19 65.06 310.94 65.65 310.24 67.44C309.46 69.44 310.71 71.82 312.12 74.52C313.81 77.71 315.45 81.25 314.04 84.84C313.505 86.4279 312.426 87.7751 310.992 88.6428C309.559 89.5104 307.865 89.8425 306.21 89.58Z" fill="black"/>
<path opacity="0.3" d="M319.48 55.29C313.48 54.22 305.88 53.63 301.78 56.29C294.25 61.12 289.56 67.21 289.63 77.08C289.7 86.95 298.92 93.87 298.92 93.87L299.46 94.26C297.989 93.6458 296.591 92.8711 295.29 91.95C290.86 88.567 287.88 83.6287 286.951 78.1328C286.021 72.6369 287.213 66.9933 290.285 62.3421C293.356 57.6909 298.079 54.3791 303.498 53.0756C308.917 51.7722 314.629 52.5743 319.48 55.32V55.29Z" fill="black"/>
<path opacity="0.1" d="M325.9 86.65C323.025 90.7111 318.858 93.6777 314.079 95.0653C309.301 96.4529 304.193 96.1796 299.59 94.29L299.46 94.23C298.777 93.9298 298.11 93.5961 297.46 93.23L321.64 56.8C326.018 60.2973 328.896 65.3333 329.688 70.8804C330.48 76.4275 329.125 82.0677 325.9 86.65Z" fill="black"/>
<path d="M314.58 368.26C305.272 379.457 294.175 389.036 281.74 396.61C277.865 398.928 273.858 401.019 269.74 402.87C241.33 415.64 208.95 416.47 178.67 409.13C115 393.7 81.22 337.5 76.93 275.11C75.78 258.25 73.2 240.04 80.03 224C86.86 207.96 100.67 198 116.29 191.08C127.63 186.03 139.88 182.64 151.01 179.87C171.152 174.894 192.398 177.086 211.1 186.07C224.19 192.28 233.51 203.07 244.52 212.16C245.687 213.12 246.86 214.077 248.04 215.03C259.162 223.982 270.853 232.203 283.04 239.64C301.55 250.93 320.5 261.58 332.33 280.54C351.2 310.76 335.28 343.66 314.58 368.26Z" fill="#0087C5"/>
<path opacity="0.4" d="M314.58 368.26C305.272 379.457 294.175 389.036 281.74 396.61C277.865 398.928 273.858 401.019 269.74 402.87C241.33 415.64 208.95 416.47 178.67 409.13C115 393.7 81.22 337.5 76.93 275.11C75.78 258.25 73.2 240.04 80.03 224C86.86 207.96 100.67 198 116.29 191.08C127.63 186.03 139.88 182.64 151.01 179.87C171.152 174.894 192.398 177.086 211.1 186.07C224.19 192.28 233.51 203.07 244.52 212.16C245.687 213.12 246.86 214.077 248.04 215.03C259.162 223.982 270.853 232.203 283.04 239.64C301.55 250.93 320.5 261.58 332.33 280.54C351.2 310.76 335.28 343.66 314.58 368.26Z" fill="white"/>
<path d="M248 215.03C246.82 214.083 245.647 213.123 244.48 212.15C233.48 203.04 224.14 192.28 211.06 186.07C192.357 177.091 171.112 174.899 150.97 179.87C124.5 186.44 91.67 196.56 79.97 224.01C73.14 240.01 75.72 258.25 76.88 275.11C81.22 337.5 115 393.7 178.67 409.13C213.31 417.53 250.67 415.23 281.74 396.61C294.175 389.036 305.272 379.457 314.58 368.26C335.28 343.66 351.2 310.76 332.35 280.54C320.53 261.54 301.58 250.93 283.06 239.64C270.853 232.205 259.141 223.984 248 215.03Z" stroke="#263238" stroke-miterlimit="10"/>
<path d="M151.55 326.28C146.249 327.884 141.105 329.966 136.18 332.5" stroke="#263238" stroke-linecap="round" stroke-linejoin="round"/>
<path d="M184 320.1C176.257 320.77 168.57 321.99 161 323.75" stroke="#263238" stroke-linecap="round" stroke-linejoin="round"/>
<path d="M177.25 318.5C177.25 318.5 147.37 301.12 111.31 315.05" stroke="#263238" stroke-linecap="round" stroke-linejoin="round"/>
<path opacity="0.1" d="M314.58 368.26C305.272 379.457 294.175 389.036 281.74 396.61C277.865 398.928 273.858 401.019 269.74 402.87C266.489 401.875 263.294 400.703 260.17 399.36C241.51 391.36 225.85 377.83 210.55 364.49C201.32 356.49 191.94 348.29 180.89 343.02C165.947 335.954 148.947 334.554 133.05 339.08C141.272 329.8 152.451 323.649 164.69 321.67C156.79 314.48 145.8 311.46 135.12 311.27C124.44 311.08 118.56 312.39 108.12 314.73C111.61 308.31 120.87 302.5 128.18 302.67C121.231 302.578 114.293 302.087 107.4 301.2C97.97 299.68 93.75 288.58 92.34 279.14C88.44 253.14 92.39 225.45 106.58 203.35C109.389 198.942 112.639 194.831 116.28 191.08C127.62 186.03 139.87 182.64 151 179.87C171.142 174.894 192.388 177.086 211.09 186.07C224.18 192.28 233.5 203.07 244.51 212.16C245.677 213.12 246.85 214.077 248.03 215.03C259.152 223.982 270.843 232.203 283.03 239.64C301.54 250.93 320.49 261.58 332.32 280.54C351.2 310.76 335.28 343.66 314.58 368.26Z" fill="black"/>
<path d="M325 367.5C330.607 372.161 336.473 376.501 342.57 380.5C354.46 381.3 349.13 395.67 349.13 395.67L338.95 402.22C338.95 402.22 321.52 388.37 312 383.88C302.48 379.39 325 367.5 325 367.5Z" fill="white"/>
<path opacity="0.3" d="M240.51 216.2C240.51 216.2 238.88 200.07 236.28 195.54L196.8 187.5V184.44C196.8 184.44 197.71 179.12 188.91 175.79C180.11 172.46 161.77 176.79 157.04 180.37C152.31 183.95 154.04 190.11 154.04 190.11C154.04 190.11 138.14 198.14 131 201.2C125.155 203.897 119.457 206.901 113.93 210.2C113.93 210.2 110.69 247.28 111.33 255.89C111.97 264.5 110.81 272.6 111.55 277.37C112.29 282.14 112.87 284.85 117.87 288.91C122.87 292.97 127.42 298.91 140.53 293.02L138.7 291.57L225 262.5L240.51 216.2Z" fill="black"/>
<path d="M240.51 216.2C240.51 216.2 238.88 200.07 236.28 195.54L196.8 187.5V184.44C196.8 184.44 197.71 179.12 188.91 175.79C180.11 172.46 161.77 176.79 157.04 180.37C152.31 183.95 154.04 190.11 154.04 190.11C154.04 190.11 138.14 198.14 131 201.2C125.155 203.897 119.457 206.901 113.93 210.2C113.93 210.2 110.69 247.28 111.33 255.89C111.97 264.5 110.81 272.6 111.55 277.37C112.29 282.14 112.87 284.85 117.87 288.91C122.87 292.97 127.42 298.91 140.53 293.02L138.7 291.57L225 262.5L240.51 216.2Z" fill="#0087C5"/>
<path opacity="0.05" d="M240.51 216.2C240.51 216.2 238.88 200.07 236.28 195.54L196.8 187.5V184.44C196.8 184.44 197.71 179.12 188.91 175.79C180.11 172.46 161.77 176.79 157.04 180.37C152.31 183.95 154.04 190.11 154.04 190.11C154.04 190.11 138.14 198.14 131 201.2C125.155 203.897 119.457 206.901 113.93 210.2C113.93 210.2 110.69 247.28 111.33 255.89C111.97 264.5 110.81 272.6 111.55 277.37C112.29 282.14 112.87 284.85 117.87 288.91C122.87 292.97 127.42 298.91 140.53 293.02L138.7 291.57L225 262.5L240.51 216.2Z" fill="black"/>
<path opacity="0.1" d="M236.8 197.5H220.28C218.727 197.503 217.224 198.055 216.04 199.06C214.855 200.065 214.065 201.458 213.81 202.99L205.67 251.99C205.67 251.99 194.46 252.92 186.52 258.71C178.58 264.5 159.05 223.19 128.19 223.17C128.19 223.17 137.07 243.47 139.04 259.67C139.04 259.67 119.75 257.57 116.55 265.12C113.35 272.67 118 286.82 126.16 281.34C134.32 275.86 142 266.72 147.45 272.5C152.9 278.28 177.25 281.39 177.25 281.39L214.72 262.5L229.25 255.67L236.8 197.5Z" fill="black"/>
<path opacity="0.4" d="M184.35 173.21C184.35 173.21 193.73 175.81 195.25 178.96C196.77 182.11 196.61 190.08 196.61 190.08C194.334 195.407 190.885 200.151 186.52 203.96L179.52 190.08L180.15 205.82C180.15 205.82 166.87 203.61 161.23 199.37L155.6 195.12C155.6 195.12 153.17 187.12 153.52 184.41C153.87 181.7 164 176.2 164 176.2L184.35 173.21Z" fill="white"/>
<path d="M340.59 415.92C340.33 415.35 344.44 408.09 341.22 400.7C338 393.31 332.87 396.16 332.87 396.16C332.87 396.16 318.26 386.86 312.12 383.92C307.696 381.698 303.435 379.165 299.37 376.34L292.88 385.08L298.88 403.64L340.59 415.92Z" fill="#0087C5"/>
<path d="M332.34 395.71L351.1 407.17C351.1 407.17 364.29 398.71 370.58 392.87C376.87 387.03 391 374.59 391 374.59L400 362.48C400 362.48 393.76 354.76 383.36 360.96C369.92 368.96 353.53 380.58 342.6 380.47C342.6 380.47 344.75 393.9 332.41 395.71" fill="#0087C5"/>
<path d="M181.17 124.73C181.17 124.73 189.68 137.61 191.23 141.78C192.78 145.95 194.03 152.12 193.72 155.09C193.41 158.06 190.29 173.97 188.72 174.43L187.21 176.14L188.21 182.88C188.21 182.88 181.55 194.39 161.97 185.95C161.97 185.95 161.21 172.51 158.83 168.29C156.45 164.07 152.89 169.09 149.32 156.9C145.75 144.71 157.12 131.9 157.12 131.9L181.17 124.73Z" fill="white"/>
<path opacity="0.5" d="M391.83 358.72C391.83 358.72 382.18 360.4 379.05 366.11C375.92 371.82 369.91 382.43 367.86 387.56C365.81 392.69 348.86 405.08 348.86 405.08L351.11 407.17C351.11 407.17 364.91 398.64 373.24 390.53C381.57 382.42 399.94 362.02 399.94 362.02C399.94 362.02 398.62 360.71 391.83 358.72Z" fill="white"/>
<path opacity="0.5" d="M295.27 381.87L292.88 385.08L300.22 400.3L340.59 414.81L342.46 408.9C342.46 408.9 343.08 402.9 328.91 398.34C314.74 393.78 306.1 390.77 302.07 387.64C298.04 384.51 295.27 381.87 295.27 381.87Z" fill="white"/>
<path d="M162 268.83C162 268.83 149.64 266.97 143.87 277.08C138.1 287.19 138.69 291.57 138.69 291.57C138.69 291.57 146.86 298.99 158.09 298.57C169.32 298.15 185.67 285.29 191 281.1C196.33 276.91 209.77 264.92 218.94 267.4L219.94 258.73C219.94 258.73 219.04 254.84 211.2 255.89C203.36 256.94 200.28 261.41 197.75 261.41C195.22 261.41 192.83 258.98 187.75 267.66C187.74 267.66 169.91 270.82 162 268.83Z" fill="white"/>
<path d="M178.06 143.25C178.323 144.87 178.697 146.471 179.18 148.04C179.361 148.806 179.702 149.525 180.18 150.15C181.12 151.15 182.64 151.41 184.03 151.62C184.26 151.636 184.477 151.728 184.65 151.88C184.762 152.059 184.815 152.269 184.8 152.48C184.792 154.055 184.319 155.593 183.44 156.9" stroke="#263238" stroke-linecap="round" stroke-linejoin="round"/>
<path opacity="0.1" d="M303.56 371.5L295.27 381.83C295.27 381.83 304.37 390.24 313.79 393.36C323.21 396.48 339.7 402.36 342.46 406.89L341.4 401.5C341.4 401.5 315.61 385.68 309.69 381.9C307.94 380.752 306.477 379.217 305.414 377.414C304.351 375.611 303.717 373.587 303.56 371.5Z" fill="black"/>
<path opacity="0.1" d="M332.34 395.71L348.85 405.08C348.85 405.08 357 399.5 361 395.39C365 391.28 369.93 386.72 373 377.51C377.19 364.78 389.19 358.72 389.19 358.72C389.19 358.72 372.5 366.58 363.81 372.72C355.12 378.86 346.65 381.46 341.73 381.04C341.68 381.07 345.63 393.57 332.34 395.71Z" fill="black"/>
<path d="M172.24 159.17C172.24 159.17 178.73 164.26 185.47 162.35C185.47 162.35 179.11 174.95 172.24 159.17Z" fill="white" stroke="#263238" stroke-linecap="round" stroke-linejoin="round"/>
<path d="M172 148.17C172.19 149.57 171.76 150.78 171.06 150.88C170.36 150.98 169.63 149.88 169.44 148.51C169.25 147.14 169.67 145.9 170.38 145.8C171.09 145.7 171.85 146.77 172 148.17Z" fill="#263238"/>
<path d="M186.13 145.62C186.31 147.03 185.89 148.24 185.19 148.33C184.49 148.42 183.75 147.33 183.57 145.97C183.39 144.61 183.8 143.35 184.51 143.26C185.22 143.17 185.94 144.22 186.13 145.62Z" fill="#263238"/>
<path d="M171 142.23C171 142.23 167.22 140.28 164.53 144.46" stroke="#263238" stroke-linecap="round" stroke-linejoin="round"/>
<path d="M180.69 139.63C180.69 139.63 184.69 136.2 187 139.63" stroke="#263238" stroke-linecap="round" stroke-linejoin="round"/>
<path d="M158.16 155.1C158.16 155.1 155.73 151.51 153.16 151.62C150.59 151.73 149.57 155.33 150.49 158.81C151.41 162.29 155.24 167.15 158.14 166.69C159.776 166.479 161.268 165.649 162.31 164.37" stroke="#263238" stroke-linecap="round" stroke-linejoin="round"/>
<path d="M181.46 127.63C184.19 129.9 187.08 132.37 188.46 135.71C189.68 138.55 189.95 141.71 191.07 144.58C192.26 147.65 193.56 150.86 193.66 154.21C193.607 157.309 193.201 160.393 192.45 163.4C192.035 166.008 191.416 168.579 190.6 171.09C189.25 174.68 186.76 176.89 183.42 178.59C180.99 179.83 176.94 181.59 174.31 179.93C172.78 178.93 170.48 176.07 168.57 173.44" stroke="#263238" stroke-linecap="round" stroke-linejoin="round"/>
<path d="M158.16 166.69C158.16 166.69 162.46 177.23 161.42 184.64" stroke="#263238" stroke-linecap="round" stroke-linejoin="round"/>
<path d="M157.06 153.33C157.632 152.907 158.086 152.343 158.377 151.693C158.667 151.043 158.786 150.329 158.72 149.62C158.56 148 157.44 146.5 157.66 144.88C157.844 144.104 158.133 143.357 158.52 142.66C159.102 141.315 159.359 139.851 159.268 138.388C159.178 136.925 158.743 135.503 158 134.24C158 134.24 171.66 134.88 178.06 130.81C184.46 126.74 189.34 116.33 185.47 111.36C181.6 106.39 174.06 113.17 168.47 113.92C162.88 114.67 143 117.84 139.83 125.5C136.66 133.16 141.49 135.91 141.64 143.22C141.79 150.53 141.79 164.38 152.72 163.11C152.72 163.11 148.63 157.82 151.47 152.37C153.4 150.08 157.06 153.33 157.06 153.33Z" fill="#263238"/>
<path d="M183.85 120C185.705 121.445 187.243 123.256 188.368 125.32C189.493 127.384 190.181 129.658 190.39 132C191 137.48 200.72 148.13 193.71 154.2C193.71 154.2 192.08 147.75 191.12 144.57C190.16 141.39 188.93 135.57 187.32 133.57C185.71 131.57 177.17 124.57 177.17 124.57L183.85 120Z" fill="#263238"/>
<path d="M159.42 184.41C159.42 184.41 166.16 188.85 178.68 189.03L180.15 205.82C180.15 205.82 166.07 204.75 155.6 195.12C155.6 195.12 152.77 187.63 153.52 184.41C154.27 181.19 161 178 161 178" stroke="#263238" stroke-linecap="round" stroke-linejoin="round"/>
<path d="M187.74 176.9L188.14 182.9C185.501 185.649 182.264 187.753 178.68 189.05L186.52 203.98C186.52 203.98 195.87 196.7 196.8 189.05C196.8 189.05 196.88 181.22 195.25 178.98C193.62 176.74 187.68 175.69 187.68 175.69" stroke="#263238" stroke-linecap="round" stroke-linejoin="round"/>
<path opacity="0.8" d="M149.8 130.5C150.8 127.99 153.54 126.5 156.21 126.1C158.88 125.7 161.62 125.98 164.32 125.91C168.059 125.88 171.72 124.844 174.92 122.91C176.51 121.942 177.893 120.67 178.992 119.167C180.09 117.664 180.881 115.959 181.32 114.15" stroke="white" stroke-linecap="round" stroke-linejoin="round"/>
<path opacity="0.8" d="M143.35 130.01C145.04 124.88 150.52 121.71 155.91 121.26C158.58 121.03 161.28 121.34 163.91 121.03C166.54 120.72 169.34 119.62 170.73 117.33" stroke="white" stroke-linecap="round" stroke-linejoin="round"/>
<path d="M140.51 293.02C127.51 299.76 122.89 292.82 115.65 287.08C108.41 281.34 113.16 271.08 111.65 254.63C110.14 238.18 113.9 210.2 113.9 210.2C113.9 210.2 117.14 209.46 126.13 203.96C135.12 198.46 154.04 190.08 154.04 190.08" stroke="#263238" stroke-linecap="round" stroke-linejoin="round"/>
<path d="M153.39 268.12C153.39 268.12 151.33 261.59 145.51 261.42C139.69 261.25 130.51 263.87 123.97 276.24" stroke="#263238" stroke-linecap="round" stroke-linejoin="round"/>
<path d="M144.18 261.03C143.818 261.006 143.463 260.922 143.13 260.78C138.332 259.054 133.125 258.817 128.19 260.1" stroke="#263238" stroke-linecap="round" stroke-linejoin="round"/>
<path d="M124.84 219.13C135.43 230.83 140.59 246.31 145.48 261.31" stroke="#263238" stroke-linecap="round" stroke-linejoin="round"/>
<path d="M196.8 187.5C196.8 187.5 216 192.08 225.38 193.17C234.76 194.26 236.28 195.57 236.28 195.57L238.03 202.11" stroke="#263238" stroke-linecap="round" stroke-linejoin="round"/>
<path d="M286.27 198.88L220.88 201.39L215.54 268.64H226.74L283.52 255.93L290.66 200.49L286.27 198.88Z" fill="white"/>
<path d="M218.94 270.63L290.46 202.08L283.52 255.93L218.94 270.63Z" fill="#0087C5"/>
<path opacity="0.7" d="M218.94 270.63L290.46 202.08L283.52 255.93L218.94 270.63Z" fill="white"/>
<path d="M218.94 268.83L224.66 203.96L290.66 200.49L283.52 255.93L218.94 268.83Z" stroke="#263238" stroke-linecap="round" stroke-linejoin="round"/>
<path d="M262.84 231.92C262.4 235.87 260.29 238.87 258.13 238.63C255.97 238.39 254.59 234.98 255.03 231.03C255.47 227.08 257.59 224.08 259.75 224.32C261.91 224.56 263.29 227.97 262.84 231.92Z" fill="#263238"/>
<path d="M283.52 255.93C283.52 255.93 313.74 255.07 323.19 261.31C332.64 267.55 338.19 298.84 336.88 315.46C335.57 332.08 324.17 370.22 324.17 370.22L302.33 345.5C302.33 345.5 291.57 306.38 297.44 291.06C297.44 291.06 268.44 292.69 257.02 289.11C257.02 289.11 246.79 272.36 229.25 266.82L283.52 255.93Z" fill="#263238"/>
<path d="M328.78 370.87C321.023 363.628 314.057 355.583 308 346.87C297.43 330.54 282.82 314.87 267.79 302.64C255.68 292.82 252.94 276.82 238 268.79C213.25 255.52 191.85 281.89 183.85 287.23C175.85 292.57 162 298.62 162 298.62C162 298.62 167.06 317.62 181.92 319.87C196.78 322.12 211.81 311.87 218.92 316.82C226.03 321.77 231.29 343.87 254.77 356.82C273.96 367.4 300.11 377.72 313.6 384.68C316.6 386.24 318.84 387.88 320.54 388.81C325.2 391.35 330.18 394.34 334.88 397.3L351.07 407.16C351.07 407.16 367.32 397.55 373.56 388.69C374.39 387.5 376.12 384.33 377.74 381.27C381.27 374.58 385.74 368.58 391.93 365.27C396.21 362.96 400.02 362.27 399.93 362.03C399.52 361.27 391.76 357.3 386.49 359.47C375.33 364.08 353.02 381.79 342.49 380.47C337.592 377.766 332.996 374.547 328.78 370.87Z" stroke="#263238" stroke-miterlimit="10"/>
<path d="M328.78 370.87C319.05 374.8 315.13 380.87 313.63 384.69C300.14 377.69 273.99 367.41 254.8 356.83C231.32 343.83 226.1 321.77 218.95 316.83C211.8 311.89 196.76 322.17 181.95 319.88C167.14 317.59 162 298.61 162 298.61C162 298.61 175.86 292.61 183.86 287.27C191.86 281.93 210.31 255.55 238 268.83C253.29 276.16 255.68 292.83 267.79 302.68C282.79 314.87 297.43 330.58 308 346.91C314.042 355.623 321.01 363.656 328.78 370.87Z" fill="#263238"/>
<path d="M255.66 286.09C255.66 286.09 248.17 270.87 236.16 267.92" stroke="white" stroke-linecap="round" stroke-linejoin="round"/>
<path d="M216.4 255.79C208.14 253.99 199.07 263.12 195.25 261.41C192.41 260.14 187.74 267.66 187.74 267.66C180.053 268.77 172.28 269.162 164.52 268.83C153.39 268.12 148.12 270.29 144.18 276.24L138.68 290.81C138.68 290.81 153.19 303.81 168.68 296.24C184.17 288.67 204.75 265.83 218.93 265.91" stroke="#263238" stroke-linecap="round" stroke-linejoin="round"/>
<path d="M331.71 395.32C331.71 395.32 345.27 396.43 342.09 380.23" stroke="#263238" stroke-miterlimit="10"/>
<path d="M395.61 370.22C394.61 372.22 382.18 382.8 371.47 392.05C371.47 391.91 374.47 386.26 375.71 383.85C378.56 378.53 385.92 363.94 399.93 362.02C401.92 363.22 395.61 370.22 395.61 370.22Z" fill="#263238"/>
<path d="M390.28 358.83C376.11 361.65 372.89 379.83 367.86 387.56C362.83 395.29 348.86 405.8 348.86 405.8" stroke="#263238" stroke-miterlimit="10"/>
<path d="M341.22 401.16C343.53 405.38 342.44 410.28 341.22 413.35C340.622 414.875 339.879 416.338 339 417.72C318.94 414.42 298.88 403.64 298.88 403.64L293.71 387.64L292.88 385.08L300.67 374.59" stroke="#263238" stroke-miterlimit="10"/>
<path d="M341.22 413.35C340.622 414.875 339.879 416.338 339 417.72C318.94 414.42 298.88 403.64 298.88 403.64L293.71 387.64C296.3 391.02 301.1 395.97 308.3 398C318.07 400.77 336.1 404.01 341.22 413.35Z" fill="#263238"/>
<path d="M215.54 266.3L220.88 201.39L286.27 198.88L290.66 200.49" stroke="#263238" stroke-linecap="round" stroke-linejoin="round"/>
<path d="M342 387.56C342 387.56 350.94 389.16 357.81 383.56C364.68 377.96 375.75 365.29 375.75 365.29" stroke="#263238" stroke-miterlimit="10"/>
<path d="M351.1 379.5C351.1 379.5 348.94 382.75 351.1 389.27" stroke="#263238" stroke-linecap="round" stroke-linejoin="round"/>
<path d="M357.44 376.39C356.457 379.631 356.747 383.125 358.25 386.16" stroke="#263238" stroke-linecap="round" stroke-linejoin="round"/>
<path d="M365 372.01C365 372.01 363.19 377.44 365 382.23" stroke="#263238" stroke-linecap="round" stroke-linejoin="round"/>
<path d="M302.44 373.24L295.27 381.87C295.27 381.87 302.49 389.76 312.68 393.04C322.87 396.32 341.07 401.89 342.58 407.82" stroke="#263238" stroke-miterlimit="10"/>
</g>
<defs>
<clipPath id="clip0_4_580">
<rect width="455" height="437" fill="white" transform="translate(0.5)"/>
</clipPath>
</defs>
</svg>
