<svg id="corporation-icon" width="76" height="87" viewBox="0 0 76 87" fill="none" xmlns="http://www.w3.org/2000/svg">
<path d="M73.7277 80.8929H70.3571V4.04464C70.3571 1.81082 68.5463 0 66.3125 0H9.6875C7.45368 0 5.64286 1.81082 5.64286 4.04464V80.8929H2.27232C1.15549 80.8929 0.25 81.7983 0.25 82.9152V86.2857H75.75V82.9152C75.75 81.7983 74.8445 80.8929 73.7277 80.8929ZM21.8214 12.808C21.8214 11.6912 22.7269 10.7857 23.8438 10.7857H30.5848C31.7016 10.7857 32.6071 11.6912 32.6071 12.808V19.5491C32.6071 20.6659 31.7016 21.5714 30.5848 21.5714H23.8438C22.7269 21.5714 21.8214 20.6659 21.8214 19.5491V12.808ZM21.8214 28.9866C21.8214 27.8698 22.7269 26.9643 23.8438 26.9643H30.5848C31.7016 26.9643 32.6071 27.8698 32.6071 28.9866V35.7277C32.6071 36.8445 31.7016 37.75 30.5848 37.75H23.8438C22.7269 37.75 21.8214 36.8445 21.8214 35.7277V28.9866ZM30.5848 53.9286H23.8438C22.7269 53.9286 21.8214 53.0231 21.8214 51.9062V45.1652C21.8214 44.0483 22.7269 43.1429 23.8438 43.1429H30.5848C31.7016 43.1429 32.6071 44.0483 32.6071 45.1652V51.9062C32.6071 53.0231 31.7016 53.9286 30.5848 53.9286ZM43.3929 80.8929H32.6071V66.7366C32.6071 65.6198 33.5126 64.7143 34.6295 64.7143H41.3705C42.4874 64.7143 43.3929 65.6198 43.3929 66.7366V80.8929ZM54.1786 51.9062C54.1786 53.0231 53.2731 53.9286 52.1562 53.9286H45.4152C44.2984 53.9286 43.3929 53.0231 43.3929 51.9062V45.1652C43.3929 44.0483 44.2984 43.1429 45.4152 43.1429H52.1562C53.2731 43.1429 54.1786 44.0483 54.1786 45.1652V51.9062ZM54.1786 35.7277C54.1786 36.8445 53.2731 37.75 52.1562 37.75H45.4152C44.2984 37.75 43.3929 36.8445 43.3929 35.7277V28.9866C43.3929 27.8698 44.2984 26.9643 45.4152 26.9643H52.1562C53.2731 26.9643 54.1786 27.8698 54.1786 28.9866V35.7277ZM54.1786 19.5491C54.1786 20.6659 53.2731 21.5714 52.1562 21.5714H45.4152C44.2984 21.5714 43.3929 20.6659 43.3929 19.5491V12.808C43.3929 11.6912 44.2984 10.7857 45.4152 10.7857H52.1562C53.2731 10.7857 54.1786 11.6912 54.1786 12.808V19.5491Z" fill="black"/>
</svg>
