<svg id="docs-icon" width="49" height="56" viewBox="0 0 49 56" fill="none" xmlns="http://www.w3.org/2000/svg">
<path d="M47.4623 7.2123L41.7877 1.5377C40.8031 0.553135 39.4678 7.28084e-06 38.0754 0L19.25 0C16.3505 0 14 2.35047 14 5.25V10.5H5.25C2.35047 10.5 0 12.8505 0 15.75V50.75C0 53.6495 2.35047 56 5.25 56H29.75C32.6495 56 35 53.6495 35 50.75V45.5H43.75C46.6495 45.5 49 43.1495 49 40.25V10.9246C49 9.53221 48.4469 8.19686 47.4623 7.2123ZM29.0938 50.75H5.90625C5.7322 50.75 5.56528 50.6809 5.44221 50.5578C5.31914 50.4347 5.25 50.2678 5.25 50.0938V16.4062C5.25 16.2322 5.31914 16.0653 5.44221 15.9422C5.56528 15.8191 5.7322 15.75 5.90625 15.75H14V40.25C14 43.1495 16.3505 45.5 19.25 45.5H29.75V50.0938C29.75 50.2678 29.6809 50.4347 29.5578 50.5578C29.4347 50.6809 29.2678 50.75 29.0938 50.75ZM43.0938 40.25H19.9062C19.7322 40.25 19.5653 40.1809 19.4422 40.0578C19.3191 39.9347 19.25 39.7678 19.25 39.5938V5.90625C19.25 5.7322 19.3191 5.56528 19.4422 5.44221C19.5653 5.31914 19.7322 5.25 19.9062 5.25H31.5V14.875C31.5 16.3248 32.6752 17.5 34.125 17.5H43.75V39.5938C43.75 39.7678 43.6809 39.9347 43.5578 40.0578C43.4347 40.1809 43.2678 40.25 43.0938 40.25ZM43.75 12.25H36.75V5.25H37.8035C37.9775 5.25 38.1444 5.31913 38.2676 5.44217L43.5578 10.7324C43.6188 10.7934 43.6671 10.8657 43.7001 10.9453C43.733 11.025 43.75 11.1103 43.75 11.1965V12.25Z" fill="#263238"/>
</svg>
