<svg id="done-icon" width="17" height="17" viewBox="0 0 17 17" fill="none" xmlns="http://www.w3.org/2000/svg">
<path d="M8.5 0.662598C4.092 0.662598 0.5 4.2546 0.5 8.6626C0.5 13.0706 4.092 16.6626 8.5 16.6626C12.908 16.6626 16.5 13.0706 16.5 8.6626C16.5 4.2546 12.908 0.662598 8.5 0.662598ZM12.324 6.8226L7.788 11.3586C7.676 11.4706 7.524 11.5346 7.364 11.5346C7.204 11.5346 7.052 11.4706 6.94 11.3586L4.676 9.0946C4.444 8.8626 4.444 8.4786 4.676 8.2466C4.908 8.0146 5.292 8.0146 5.524 8.2466L7.364 10.0866L11.476 5.9746C11.708 5.7426 12.092 5.7426 12.324 5.9746C12.556 6.2066 12.556 6.5826 12.324 6.8226Z" fill="#263238"/>
</svg>
