<svg id="hand-icon" width="90" height="80" viewBox="0 0 90 80" fill="none" xmlns="http://www.w3.org/2000/svg">
<path d="M42.3522 22.5464L50.8317 24.7807C51.1197 24.8481 51.3774 25.0086 51.5647 25.2375C51.7521 25.4664 51.8585 25.7507 51.8676 26.0463C51.8676 26.7651 51.2286 27.3588 50.4427 27.3588H44.8803C44.2809 27.3571 43.6874 27.2404 43.1319 27.015C42.3132 26.6713 41.3694 26.7494 40.7413 27.3275L37.7726 30.0619C37.6353 30.182 37.5168 30.3221 37.4211 30.4775C37.2985 30.6785 37.2169 30.9018 37.1811 31.1345C37.1452 31.3672 37.1558 31.6048 37.2121 31.8334C37.2685 32.062 37.3695 32.2772 37.5094 32.4666C37.6493 32.6559 37.8254 32.8158 38.0273 32.9368C39.6714 33.9235 41.5121 34.5369 43.4194 34.7336V37.4992C43.4194 38.8742 44.6428 39.9991 46.1334 39.9991H48.8474C50.3396 39.9991 51.563 38.8742 51.563 37.4992V34.7493C56.7082 34.1868 60.6003 29.9056 59.9222 24.9057C59.43 21.312 56.4129 18.4527 52.6473 17.4528L44.1678 15.2184C43.8798 15.1511 43.6221 14.9905 43.4348 14.7616C43.2475 14.5328 43.141 14.2484 43.1319 13.9528C43.1319 13.2341 43.7709 12.6404 44.5569 12.6404H50.1192C50.7208 12.6413 51.3165 12.758 51.8739 12.9841C52.6911 13.3278 53.6364 13.2497 54.2645 12.6716L57.2332 9.93729C57.3659 9.81966 57.4802 9.68271 57.5722 9.53105C57.6958 9.33007 57.7784 9.1066 57.8151 8.87353C57.8519 8.64046 57.8421 8.40242 57.7863 8.17317C57.7305 7.94392 57.6298 7.72799 57.4901 7.53786C57.3504 7.34774 57.1744 7.18718 56.9722 7.06547C55.3276 6.07883 53.4863 5.46543 51.5786 5.26864V2.49995C51.5786 1.12498 50.3567 0 48.8646 0H46.1506C44.6584 0 43.4366 1.12498 43.4366 2.49995V5.24989C38.2976 5.81238 34.3977 10.0935 35.0758 15.0934C35.5664 18.6871 38.5929 21.5464 42.3522 22.5464ZM88.3216 51.2645C86.4779 49.5927 83.6029 49.7021 81.6655 51.2645L67.2283 62.8112C65.4561 64.2329 63.2504 65.0049 60.9784 64.9986H42.4991C41.8361 64.9986 41.2002 64.7352 40.7314 64.2664C40.2625 63.7976 39.9991 63.1617 39.9991 62.4987C39.9991 61.8356 40.2625 61.1998 40.7314 60.7309C41.2002 60.2621 41.8361 59.9987 42.4991 59.9987H54.7317C57.216 59.9987 59.53 58.2956 59.9269 55.8426C59.9758 55.5609 59.9998 55.2754 59.9987 54.9895C59.9962 53.665 59.4684 52.3957 58.531 51.4601C57.5936 50.5244 56.3233 49.9989 54.9988 49.9989H29.9994C25.7832 50 21.6956 51.4503 18.4215 54.1067L11.156 59.9987H2.49995C1.83692 59.9987 1.20105 60.2621 0.732217 60.7309C0.263387 61.1998 0 61.8356 0 62.4987L0 77.4984C0 78.1614 0.263387 78.7972 0.732217 79.2661C1.20105 79.7349 1.83692 79.9983 2.49995 79.9983H58.2441C60.5153 80.0001 62.7195 79.2286 64.4939 77.8108L88.1231 58.905C88.6915 58.4504 89.1538 57.8771 89.4777 57.2253C89.8016 56.5735 89.9793 55.8588 89.9983 55.1312C90.0174 54.4036 89.8773 53.6806 89.588 53.0128C89.2986 52.3449 88.867 51.7483 88.3231 51.2645H88.3216Z" fill="black"/>
</svg>
