<svg id="market-icon" width="49" height="42" viewBox="0 0 49 42" fill="none" xmlns="http://www.w3.org/2000/svg">
<path d="M47.8876 10.0691L42.7245 1.82724C42.2631 1.08737 41.4436 0.633911 40.5685 0.633911H8.42835C7.55324 0.633911 6.73383 1.08737 6.27241 1.82724L1.10929 10.0691C-1.5558 14.3253 0.806983 20.2442 5.78712 20.9204C6.14512 20.9682 6.51107 20.992 6.87702 20.992C9.23185 20.992 11.3162 19.9578 12.7482 18.3588C14.1802 19.9578 16.2725 20.992 18.6193 20.992C20.9742 20.992 23.0585 19.9578 24.4905 18.3588C25.9225 19.9578 28.0148 20.992 30.3616 20.992C32.7165 20.992 34.8008 19.9578 36.2328 18.3588C37.6727 19.9578 39.7571 20.992 42.104 20.992C42.4779 20.992 42.8359 20.9682 43.1939 20.9204C48.1899 20.2522 50.5606 14.3333 47.8876 10.0691ZM42.1199 23.5457C41.3243 23.5457 40.5367 23.4264 39.773 23.2434V31.183H9.2239V23.2434C8.46017 23.4184 7.67257 23.5457 6.87702 23.5457C6.39969 23.5457 5.91441 23.5139 5.44504 23.4503C4.99953 23.3866 4.56198 23.2832 4.14033 23.1639V38.8203C4.14033 40.2284 5.27797 41.366 6.68609 41.366H42.3267C43.7348 41.366 44.8725 40.2284 44.8725 38.8203V23.1639C44.4429 23.2912 44.0133 23.3946 43.5678 23.4503C43.0825 23.5139 42.6052 23.5457 42.1199 23.5457Z" fill="#263238"/>
</svg>
