<svg id="plan-icon" width="49" height="42" viewBox="0 0 49 42" fill="none" xmlns="http://www.w3.org/2000/svg">
<path d="M13.3611 0.664441C13.2544 0.557376 13.1276 0.472426 12.988 0.414462C12.8484 0.356498 12.6987 0.32666 12.5476 0.32666C12.3964 0.32666 12.2468 0.356498 12.1072 0.414462C11.9676 0.472426 11.8408 0.557376 11.7341 0.664441L5.63974 6.72341L3.46728 4.60646C3.36058 4.49939 3.2338 4.41444 3.09421 4.35648C2.95461 4.29851 2.80495 4.26868 2.6538 4.26868C2.50265 4.26868 2.35298 4.29851 2.21339 4.35648C2.0738 4.41444 1.94702 4.49939 1.84032 4.60646L0.337781 6.11091C0.230716 6.21761 0.145766 6.34438 0.0878016 6.48398C0.0298375 6.62357 0 6.77324 0 6.92439C0 7.07554 0.0298375 7.2252 0.0878016 7.3648C0.145766 7.50439 0.230716 7.63117 0.337781 7.73787L4.8923 12.2742C5.11964 12.4903 5.42131 12.6108 5.73496 12.6108C6.04862 12.6108 6.35029 12.4903 6.57763 12.2742L8.06964 10.7793L14.9794 3.8705C15.1947 3.65504 15.3164 3.36337 15.318 3.05879C15.3196 2.75421 15.201 2.46127 14.988 2.24354L13.3611 0.664441ZM13.3611 15.8994C13.2544 15.7924 13.1276 15.7074 12.988 15.6495C12.8484 15.5915 12.6987 15.5617 12.5476 15.5617C12.3964 15.5617 12.2468 15.5915 12.1072 15.6495C11.9676 15.7074 11.8408 15.7924 11.7341 15.8994L5.63974 21.9976L3.46728 19.8826C3.36058 19.7755 3.2338 19.6906 3.09421 19.6326C2.95461 19.5747 2.80495 19.5448 2.6538 19.5448C2.50265 19.5448 2.35298 19.5747 2.21339 19.6326C2.0738 19.6906 1.94702 19.7755 1.84032 19.8826L0.337781 21.3842C0.230716 21.4909 0.145766 21.6177 0.0878016 21.7573C0.0298375 21.8968 0 22.0465 0 22.1977C0 22.3488 0.0298375 22.4985 0.0878016 22.6381C0.145766 22.7777 0.230716 22.9044 0.337781 23.0111L4.88081 27.557C5.10799 27.7731 5.4095 27.8936 5.723 27.8936C6.0365 27.8936 6.33801 27.7731 6.56519 27.557L8.06773 26.0555L14.9775 19.1438C15.192 18.9298 15.3132 18.6398 15.3148 18.3369C15.3164 18.0339 15.1983 17.7426 14.9861 17.5264L13.3611 15.8994ZM6.12496 32.4858C3.58978 32.4858 1.47474 34.5434 1.47474 37.0795C1.47474 39.6156 3.59169 41.6733 6.12496 41.6733C7.34329 41.6733 8.51173 41.1893 9.37323 40.3278C10.2347 39.4663 10.7187 38.2978 10.7187 37.0795C10.7187 35.8612 10.2347 34.6927 9.37323 33.8312C8.51173 32.9697 7.34329 32.4858 6.12496 32.4858ZM47.4688 34.017H19.9062C19.5001 34.017 19.1106 34.1783 18.8235 34.4655C18.5363 34.7527 18.375 35.1421 18.375 35.5483V38.6108C18.375 39.0169 18.5363 39.4064 18.8235 39.6935C19.1106 39.9807 19.5001 40.142 19.9062 40.142H47.4688C47.8749 40.142 48.2643 39.9807 48.5515 39.6935C48.8387 39.4064 49 39.0169 49 38.6108V35.5483C49 35.1421 48.8387 34.7527 48.5515 34.4655C48.2643 34.1783 47.8749 34.017 47.4688 34.017ZM47.4688 3.39198H19.9062C19.5001 3.39198 19.1106 3.55331 18.8235 3.84048C18.5363 4.12764 18.375 4.51712 18.375 4.92323V7.98574C18.375 8.39185 18.5363 8.78133 18.8235 9.06849C19.1106 9.35566 19.5001 9.51699 19.9062 9.51699H47.4688C47.8749 9.51699 48.2643 9.35566 48.5515 9.06849C48.8387 8.78133 49 8.39185 49 7.98574V4.92323C49 4.51712 48.8387 4.12764 48.5515 3.84048C48.2643 3.55331 47.8749 3.39198 47.4688 3.39198ZM47.4688 18.7045H19.9062C19.5001 18.7045 19.1106 18.8658 18.8235 19.153C18.5363 19.4402 18.375 19.8296 18.375 20.2357V23.2983C18.375 23.7044 18.5363 24.0938 18.8235 24.381C19.1106 24.6682 19.5001 24.8295 19.9062 24.8295H47.4688C47.8749 24.8295 48.2643 24.6682 48.5515 24.381C48.8387 24.0938 49 23.7044 49 23.2983V20.2357C49 19.8296 48.8387 19.4402 48.5515 19.153C48.2643 18.8658 47.8749 18.7045 47.4688 18.7045Z" fill="#263238"/>
</svg>
