<svg id="settings-icon" width="49" height="40" viewBox="0 0 49 40" fill="none" xmlns="http://www.w3.org/2000/svg">
<path d="M39.2116 15.0804L38.5838 16.1753C38.354 16.5811 37.864 16.7496 37.4276 16.5888C36.524 16.2519 35.6971 15.7695 34.9697 15.1646C34.6175 14.8737 34.5256 14.3607 34.7553 13.9625L35.3832 12.8676C34.8549 12.255 34.4414 11.5429 34.1657 10.7696H32.9023C32.4429 10.7696 32.0448 10.4403 31.9682 9.98091C31.8151 9.06209 31.8074 8.09732 31.9682 7.14021C32.0448 6.6808 32.4429 6.34389 32.9023 6.34389H34.1657C34.4414 5.57055 34.8549 4.85846 35.3832 4.24591L34.7553 3.15097C34.5256 2.75282 34.6098 2.2398 34.9697 1.94884C35.6971 1.34395 36.5317 0.861565 37.4276 0.524662C37.864 0.363868 38.354 0.532319 38.5838 0.938134L39.2116 2.03307C40.0156 1.88759 40.8349 1.88759 41.6388 2.03307L42.2667 0.938134C42.4964 0.532319 42.9865 0.363868 43.4229 0.524662C44.3264 0.861565 45.1534 1.34395 45.8808 1.94884C46.233 2.2398 46.3249 2.75282 46.0952 3.15097L45.4673 4.24591C45.9956 4.85846 46.4091 5.57055 46.6847 6.34389H47.9481C48.4075 6.34389 48.8057 6.67314 48.8823 7.13255C49.0354 8.05138 49.0431 9.01615 48.8823 9.97326C48.8057 10.4327 48.4075 10.7696 47.9481 10.7696H46.6847C46.4091 11.5429 45.9956 12.255 45.4673 12.8676L46.0952 13.9625C46.3249 14.3607 46.2406 14.8737 45.8808 15.1646C45.1534 15.7695 44.3188 16.2519 43.4229 16.5888C42.9865 16.7496 42.4964 16.5811 42.2667 16.1753L41.6388 15.0804C40.8425 15.2259 40.0156 15.2259 39.2116 15.0804ZM38.4076 10.5782C41.3555 12.8446 44.7169 9.48322 42.4505 6.53532C39.5026 4.26122 36.1412 7.63025 38.4076 10.5782ZM29.5793 22.3621L32.1596 23.6484C32.933 24.0925 33.2699 25.0343 32.9636 25.8766C32.2821 27.7296 30.9422 29.4294 29.7018 30.9148C29.1352 31.5963 28.1551 31.7647 27.3817 31.3206L25.1536 30.0343C23.9285 31.0833 22.5043 31.9179 20.95 32.4615V35.0342C20.95 35.9224 20.3144 36.6881 19.4415 36.8413C17.558 37.1628 15.5825 37.1782 13.63 36.8413C12.7494 36.6881 12.0986 35.9301 12.0986 35.0342V32.4615C10.5442 31.9102 9.12007 31.0833 7.89497 30.0343L5.66681 31.313C4.90112 31.7571 3.91339 31.5886 3.34678 30.9072C2.10636 29.4217 0.797035 27.7219 0.115572 25.8766C-0.190703 25.042 0.1462 24.1002 0.919545 23.6484L3.46929 22.3621C3.17067 20.7618 3.17067 19.1156 3.46929 17.5076L0.919545 16.2136C0.1462 15.7695 -0.19836 14.8277 0.115572 13.9931C0.797035 12.1402 2.10636 10.4403 3.34678 8.95489C3.91339 8.27343 4.89347 8.10498 5.66681 8.54908L7.89497 9.83543C9.12007 8.78644 10.5442 7.95184 12.0986 7.4082V4.82783C12.0986 3.94729 12.7265 3.1816 13.5993 3.02846C15.4829 2.70687 17.4661 2.69156 19.4186 3.02081C20.2991 3.17394 20.95 3.93198 20.95 4.82783V7.40054C22.5043 7.95184 23.9285 8.77878 25.1536 9.82778L27.3817 8.54142C28.1474 8.09732 29.1352 8.26577 29.7018 8.94723C30.9422 10.4327 32.2439 12.1325 32.9253 13.9855C33.2316 14.8201 32.933 15.7619 32.1596 16.2136L29.5793 17.5C29.8779 19.1079 29.8779 20.7541 29.5793 22.3621ZM20.5748 23.9777C25.1076 18.0819 18.3772 11.3515 12.4814 15.8844C7.94856 21.7802 14.679 28.5106 20.5748 23.9777ZM39.2116 37.9668L38.5838 39.0618C38.354 39.4676 37.864 39.636 37.4276 39.4752C36.524 39.1383 35.6971 38.6559 34.9697 38.051C34.6175 37.7601 34.5256 37.2471 34.7553 36.8489L35.3832 35.754C34.8549 35.1414 34.4414 34.4293 34.1657 33.656H32.9023C32.4429 33.656 32.0448 33.3267 31.9682 32.8673C31.8151 31.9485 31.8074 30.9837 31.9682 30.0266C32.0448 29.5672 32.4429 29.2303 32.9023 29.2303H34.1657C34.4414 28.457 34.8549 27.7449 35.3832 27.1323L34.7553 26.0374C34.5256 25.6392 34.6098 25.1262 34.9697 24.8353C35.6971 24.2304 36.5317 23.748 37.4276 23.4111C37.864 23.2503 38.354 23.4187 38.5838 23.8246L39.2116 24.9195C40.0156 24.774 40.8349 24.774 41.6388 24.9195L42.2667 23.8246C42.4964 23.4187 42.9865 23.2503 43.4229 23.4111C44.3264 23.748 45.1534 24.2304 45.8808 24.8353C46.233 25.1262 46.3249 25.6392 46.0952 26.0374L45.4673 27.1323C45.9956 27.7449 46.4091 28.457 46.6847 29.2303H47.9481C48.4075 29.2303 48.8057 29.5596 48.8823 30.019C49.0354 30.9378 49.0431 31.9026 48.8823 32.8597C48.8057 33.3191 48.4075 33.656 47.9481 33.656H46.6847C46.4091 34.4293 45.9956 35.1414 45.4673 35.754L46.0952 36.8489C46.3249 37.2471 46.2406 37.7601 45.8808 38.051C45.1534 38.6559 44.3188 39.1383 43.4229 39.4752C42.9865 39.636 42.4964 39.4676 42.2667 39.0618L41.6388 37.9668C40.8425 38.1123 40.0156 38.1123 39.2116 37.9668ZM38.4076 33.4569C41.3555 35.7234 44.7169 32.362 42.4505 29.4141C39.5026 27.1476 36.1412 30.509 38.4076 33.4569Z" fill="#263238"/>
</svg>
