<svg id="users-icon" width="104" height="73" viewBox="0 0 104 73" fill="none" xmlns="http://www.w3.org/2000/svg">
<path d="M15.6687 31.1412C21.3941 31.1412 26.0491 26.4862 26.0491 20.7608C26.0491 15.0353 21.3941 10.3804 15.6687 10.3804C9.94323 10.3804 5.28828 15.0353 5.28828 20.7608C5.28828 26.4862 9.94323 31.1412 15.6687 31.1412ZM88.3314 31.1412C94.0568 31.1412 98.7118 26.4862 98.7118 20.7608C98.7118 15.0353 94.0568 10.3804 88.3314 10.3804C82.6059 10.3804 77.951 15.0353 77.951 20.7608C77.951 26.4862 82.6059 31.1412 88.3314 31.1412ZM93.5216 36.3314H83.1412C80.2866 36.3314 77.7077 37.4829 75.8262 39.3482C82.3626 42.9326 87.0014 49.4042 88.007 57.0921H98.7118C101.583 57.0921 103.902 54.7728 103.902 51.9019V46.7117C103.902 40.9863 99.247 36.3314 93.5216 36.3314ZM52 36.3314C62.0398 36.3314 70.1657 28.2055 70.1657 18.1657C70.1657 8.1259 62.0398 0 52 0C41.9602 0 33.8343 8.1259 33.8343 18.1657C33.8343 28.2055 41.9602 36.3314 52 36.3314ZM64.4565 41.5215H63.1103C59.7367 43.1435 55.99 44.1166 52 44.1166C48.0101 44.1166 44.2796 43.1435 40.8898 41.5215H39.5436C29.228 41.5215 20.8589 49.8907 20.8589 60.2062V64.8774C20.8589 69.1755 24.346 72.6627 28.6441 72.6627H75.3559C79.654 72.6627 83.1412 69.1755 83.1412 64.8774V60.2062C83.1412 49.8907 74.772 41.5215 64.4565 41.5215ZM28.1738 39.3482C26.2923 37.4829 23.7135 36.3314 20.8589 36.3314H10.4785C4.75304 36.3314 0.0980835 40.9863 0.0980835 46.7117V51.9019C0.0980835 54.7728 2.41745 57.0921 5.28828 57.0921H15.9768C16.9987 49.4042 21.6374 42.9326 28.1738 39.3482Z" fill="black"/>
</svg>
